#N canvas 89 23 1156 606 10;
#X floatatom 131 120 0 0 0 0 - - -;
#X text 59 43 Modelo de Simulación de Fuentes Sonoras de John Chowning
utilizado en TURENAS - CETTA-SUBIA VALDEZ;
#X obj 113 103 hsl 60 15 360 140 0 0 empty empty empty -2 -8 0 10 -262144
-1 -1 0 1;
#X obj 344 90 inlet~;
#X obj 344 122 send~ \$0-audioToSpat;
#X obj 213 331 r~ \$0-audioToSpat;
#X obj 102 143 vsl 8 60 0 1 0 0 empty empty empty 0 -9 0 10 -4034 -1
-1 0 1;
#X obj 111 143 vsl 8 60 0 1 0 0 empty empty empty 0 -9 0 10 -4034 -1
-1 0 1;
#X obj 120 143 vsl 8 60 0 1 0 0 empty empty empty 0 -9 0 10 -4034 -1
-1 0 1;
#X obj 129 143 vsl 8 60 0 1 0 0 empty empty empty 0 -9 0 10 -4034 -1
-1 0 1;
#X obj 138 143 vsl 8 60 0 1 0 0 empty empty empty 0 -9 0 10 -4034 -1
-1 0 1;
#X obj 147 143 vsl 8 60 0 1 0 0 empty empty empty 0 -9 0 10 -4034 -1
-1 0 1;
#X obj 156 143 vsl 8 60 0 1 0 0 empty empty empty 0 -9 0 10 -4034 -1
-1 0 1;
#X obj 165 143 vsl 8 60 0 1 0 0 empty empty empty 0 -9 0 10 -4034 -1
-1 0 1;
#N canvas 202 78 1052 393 turenas.................... 0;
#X obj 1140 124 comment 31 9 helvetica ? 35584 0 0 0 PRV;
#X obj 431 -13 comment 49 9 helvetica ? 35584 0 0 0 ANGULO;
#X obj 1013 -2 comment 58 9 helvetica ? 35584 0 0 0 DISTANCIA;
#X obj 392 -14 inlet;
#X obj 264 -11 comment 41 9 helvetica ? 35584 0 0 0 AUDIO;
#X obj 92 350 outlet~;
#X obj 158 350 outlet~;
#X obj 225 350 outlet~;
#X obj 291 350 outlet~;
#X obj 220 -12 inlet~;
#X obj 93 317 *~;
#X obj 159 317 *~;
#X obj 226 317 *~;
#X obj 292 317 *~;
#X obj 220 190 /~ 1;
#X text 399 175 Los valores de la tabla sirven como control de ganancia
de los cuatro canales y de esa manera realiza un panoramico de intensidad
correcto.;
#X text 962 -52 REVERBERACION;
#X text 404 -59 AMPLITUD;
#X obj 359 350 outlet~;
#X obj 425 350 outlet~;
#X obj 492 350 outlet~;
#X obj 558 350 outlet~;
#X obj 360 317 *~;
#X obj 426 317 *~;
#X obj 493 317 *~;
#X obj 559 317 *~;
#N canvas 159 90 1225 534 c_amp 0;
#X obj 50 47 inlet;
#X obj 92 49 comment 50 9 helvetica ? 35584 0 0 0 Angulo;
#X floatatom -40 114 5 0 0 0 - - -, f 5;
#X obj 49 432 outlet~;
#X obj 486 409 outlet~;
#X obj 582 409 outlet~;
#X text 487 1 En este subpatch se lee la tabla y el valor correspondientea
determinada ubicacion.;
#X floatatom 11 44 5 0 359 0 - - -, f 5;
#X obj 106 318 vsl 15 128 0 1 0 0 empty empty CANAL1 0 -9 0 10 -262144
-1 -1 0 1;
#X obj 543 295 vsl 15 128 0 1 0 0 empty empty CANAL2 0 -9 0 10 -262144
-1 -1 0 1;
#X obj 639 295 vsl 15 128 0 1 0 0 empty empty CANAL3 0 -9 0 10 -262144
-1 -1 0 1;
#X obj 130 59 expr $f1 * 512 / 360;
#X text 272 56 SE ESCALAN LOS VALORES ANGULARES AL NUMERO DE VALORES
QUE TIENE LA TABLA. EN ESTE CASO SE PRETENDE QUE NI BIEN ARRANCA EL
PROGRAMA LA FUENTE ESTE EN EL CENTRO DE LOS PARLANTES 1 Y 2;
#N canvas 598 260 491 366 funcion 0;
#X obj 106 175 peek~ funcion_e;
#X obj 193 76 - 512;
#X floatatom 64 142 5 0 0 0 - - -, f 5;
#X msg 106 238 \$1 20;
#X obj 106 259 line~;
#X obj 106 125 expr if ($i1 < 512 \, $i1 \, $i2);
#X text 137 207 Volvemos a cero los valores cuando superan as 512 muestras
;
#X obj 105 11 inlet;
#X obj 105 298 outlet~;
#X obj 167 298 outlet;
#X obj 106 37 + 64;
#X connect 0 0 3 0;
#X connect 0 0 9 0;
#X connect 1 0 5 1;
#X connect 3 0 4 0;
#X connect 4 0 8 0;
#X connect 5 0 0 0;
#X connect 5 0 2 0;
#X connect 7 0 10 0;
#X connect 10 0 1 0;
#X connect 10 0 5 0;
#X restore 486 175 pd funcion;
#N canvas 598 260 491 366 funcion 0;
#X obj 106 175 peek~ funcion_e;
#X obj 193 76 - 512;
#X floatatom 64 142 5 0 0 0 - - -, f 5;
#X msg 106 238 \$1 20;
#X obj 106 259 line~;
#X obj 106 125 expr if ($i1 < 512 \, $i1 \, $i2);
#X text 137 207 Volvemos a cero los valores cuando superan as 512 muestras
;
#X obj 105 11 inlet;
#X obj 105 298 outlet~;
#X obj 167 298 outlet;
#X obj 106 37 + 128;
#X connect 0 0 3 0;
#X connect 0 0 9 0;
#X connect 1 0 5 1;
#X connect 3 0 4 0;
#X connect 4 0 8 0;
#X connect 5 0 0 0;
#X connect 5 0 2 0;
#X connect 7 0 10 0;
#X connect 10 0 1 0;
#X connect 10 0 5 0;
#X restore 582 176 pd funcion;
#X obj 698 408 outlet~;
#X obj 755 294 vsl 15 128 0 1 0 0 empty empty CANAL4 0 -9 0 10 -262144
-1 -1 0 1;
#N canvas 598 260 491 366 funcion 0;
#X obj 106 175 peek~ funcion_e;
#X obj 193 76 - 512;
#X floatatom 64 142 5 0 0 0 - - -, f 5;
#X msg 106 238 \$1 20;
#X obj 106 259 line~;
#X obj 106 125 expr if ($i1 < 512 \, $i1 \, $i2);
#X text 137 207 Volvemos a cero los valores cuando superan as 512 muestras
;
#X obj 105 11 inlet;
#X obj 105 298 outlet~;
#X obj 167 298 outlet;
#X obj 106 37 + 192;
#X connect 0 0 3 0;
#X connect 0 0 9 0;
#X connect 1 0 5 1;
#X connect 3 0 4 0;
#X connect 4 0 8 0;
#X connect 5 0 0 0;
#X connect 5 0 2 0;
#X connect 7 0 10 0;
#X connect 10 0 1 0;
#X connect 10 0 5 0;
#X restore 698 175 pd funcion;
#X obj 50 85 expr ($f1+45) * 512 / 360;
#X obj 796 407 outlet~;
#X obj 892 407 outlet~;
#X obj 988 407 outlet~;
#X obj 853 293 vsl 15 128 0 1 0 0 empty empty CANAL5 0 -9 0 10 -262144
-1 -1 0 1;
#X obj 949 293 vsl 15 128 0 1 0 0 empty empty CANAL6 0 -9 0 10 -262144
-1 -1 0 1;
#X obj 1045 293 vsl 15 128 0 1 0 0 empty empty CANAL7 0 -9 0 10 -262144
-1 -1 0 1;
#N canvas 598 260 491 366 funcion 0;
#X obj 106 175 peek~ funcion_e;
#X obj 193 76 - 512;
#X floatatom 64 142 5 0 0 0 - - -, f 5;
#X msg 106 238 \$1 20;
#X obj 106 259 line~;
#X obj 106 125 expr if ($i1 < 512 \, $i1 \, $i2);
#X text 137 207 Volvemos a cero los valores cuando superan as 512 muestras
;
#X obj 105 11 inlet;
#X obj 105 298 outlet~;
#X obj 167 298 outlet;
#X obj 106 37 + 256;
#X connect 0 0 3 0;
#X connect 0 0 9 0;
#X connect 1 0 5 1;
#X connect 3 0 4 0;
#X connect 4 0 8 0;
#X connect 5 0 0 0;
#X connect 5 0 2 0;
#X connect 7 0 10 0;
#X connect 10 0 1 0;
#X connect 10 0 5 0;
#X restore 796 174 pd funcion;
#N canvas 598 260 491 366 funcion 0;
#X obj 106 175 peek~ funcion_e;
#X obj 193 76 - 512;
#X floatatom 64 142 5 0 0 0 - - -, f 5;
#X msg 106 238 \$1 20;
#X obj 106 259 line~;
#X obj 106 125 expr if ($i1 < 512 \, $i1 \, $i2);
#X text 137 207 Volvemos a cero los valores cuando superan as 512 muestras
;
#X obj 105 11 inlet;
#X obj 105 298 outlet~;
#X obj 167 298 outlet;
#X obj 106 37 + 320;
#X connect 0 0 3 0;
#X connect 0 0 9 0;
#X connect 1 0 5 1;
#X connect 3 0 4 0;
#X connect 4 0 8 0;
#X connect 5 0 0 0;
#X connect 5 0 2 0;
#X connect 7 0 10 0;
#X connect 10 0 1 0;
#X connect 10 0 5 0;
#X restore 892 173 pd funcion;
#N canvas 598 260 491 366 funcion 0;
#X obj 106 175 peek~ funcion_e;
#X obj 193 76 - 512;
#X floatatom 64 142 5 0 0 0 - - -, f 5;
#X msg 106 238 \$1 20;
#X obj 106 259 line~;
#X obj 106 125 expr if ($i1 < 512 \, $i1 \, $i2);
#X text 137 207 Volvemos a cero los valores cuando superan as 512 muestras
;
#X obj 105 11 inlet;
#X obj 105 298 outlet~;
#X obj 167 298 outlet;
#X obj 106 37 + 384;
#X connect 0 0 3 0;
#X connect 0 0 9 0;
#X connect 1 0 5 1;
#X connect 3 0 4 0;
#X connect 4 0 8 0;
#X connect 5 0 0 0;
#X connect 5 0 2 0;
#X connect 7 0 10 0;
#X connect 10 0 1 0;
#X connect 10 0 5 0;
#X restore 988 174 pd funcion;
#X obj 1087 406 outlet~;
#X obj 1144 292 vsl 15 128 0 1 0 0 empty empty CANAL8 0 -9 0 10 -262144
-1 -1 0 1;
#N canvas 598 260 491 366 funcion 0;
#X obj 106 175 peek~ funcion_e;
#X obj 193 76 - 512;
#X floatatom 64 142 5 0 0 0 - - -, f 5;
#X msg 106 238 \$1 20;
#X obj 106 259 line~;
#X obj 106 125 expr if ($i1 < 512 \, $i1 \, $i2);
#X text 137 207 Volvemos a cero los valores cuando superan as 512 muestras
;
#X obj 105 11 inlet;
#X obj 105 298 outlet~;
#X obj 167 298 outlet;
#X obj 106 37 + 448;
#X connect 0 0 3 0;
#X connect 0 0 9 0;
#X connect 1 0 5 1;
#X connect 3 0 4 0;
#X connect 4 0 8 0;
#X connect 5 0 0 0;
#X connect 5 0 2 0;
#X connect 7 0 10 0;
#X connect 10 0 1 0;
#X connect 10 0 5 0;
#X restore 1087 173 pd funcion;
#X obj 138 179 - 512;
#X floatatom 9 245 5 0 0 0 - - -, f 5;
#X msg 51 341 \$1 20;
#X obj 51 362 line~;
#X obj 51 228 expr if ($i1 < 512 \, $i1 \, $i2);
#X obj 51 140 + 0;
#X obj 51 278 peek~ funcion_e;
#X obj 106 460 outlet;
#X obj 543 437 outlet;
#X obj 639 438 outlet;
#X obj 755 438 outlet;
#X obj 854 436 outlet;
#X obj 950 436 outlet;
#X obj 1046 437 outlet;
#X obj 1141 438 outlet;
#X connect 0 0 18 0;
#X connect 7 0 18 0;
#X connect 8 0 38 0;
#X connect 9 0 39 0;
#X connect 10 0 40 0;
#X connect 13 0 4 0;
#X connect 13 1 9 0;
#X connect 14 0 5 0;
#X connect 14 1 10 0;
#X connect 16 0 41 0;
#X connect 17 0 15 0;
#X connect 17 1 16 0;
#X connect 18 0 2 0;
#X connect 18 0 13 0;
#X connect 18 0 14 0;
#X connect 18 0 17 0;
#X connect 18 0 25 0;
#X connect 18 0 26 0;
#X connect 18 0 27 0;
#X connect 18 0 30 0;
#X connect 18 0 36 0;
#X connect 22 0 42 0;
#X connect 23 0 43 0;
#X connect 24 0 44 0;
#X connect 25 0 19 0;
#X connect 25 1 22 0;
#X connect 26 0 20 0;
#X connect 26 1 23 0;
#X connect 27 0 21 0;
#X connect 27 1 24 0;
#X connect 29 0 45 0;
#X connect 30 0 28 0;
#X connect 30 1 29 0;
#X connect 31 0 35 1;
#X connect 33 0 34 0;
#X connect 34 0 3 0;
#X connect 35 0 32 0;
#X connect 35 0 37 0;
#X connect 36 0 31 0;
#X connect 36 0 35 0;
#X connect 37 0 33 0;
#X connect 37 0 8 0;
#X restore 392 222 pd c_amp ..............................;
#X obj 624 348 outlet;
#X obj 668 347 outlet;
#X obj 710 347 outlet;
#X obj 754 346 outlet;
#X obj 799 345 outlet;
#X obj 843 344 outlet;
#X obj 885 344 outlet;
#X obj 929 343 outlet;
#X connect 3 0 26 0;
#X connect 9 0 14 0;
#X connect 10 0 5 0;
#X connect 11 0 6 0;
#X connect 12 0 7 0;
#X connect 13 0 8 0;
#X connect 14 0 10 0;
#X connect 14 0 11 0;
#X connect 14 0 12 0;
#X connect 14 0 13 0;
#X connect 14 0 22 0;
#X connect 14 0 23 0;
#X connect 14 0 24 0;
#X connect 14 0 25 0;
#X connect 22 0 18 0;
#X connect 23 0 19 0;
#X connect 24 0 20 0;
#X connect 25 0 21 0;
#X connect 26 0 10 1;
#X connect 26 1 27 0;
#X connect 26 2 11 1;
#X connect 26 3 28 0;
#X connect 26 4 12 1;
#X connect 26 5 29 0;
#X connect 26 6 13 1;
#X connect 26 7 30 0;
#X connect 26 8 22 1;
#X connect 26 9 31 0;
#X connect 26 10 23 1;
#X connect 26 11 32 0;
#X connect 26 12 24 1;
#X connect 26 13 33 0;
#X connect 26 14 25 1;
#X connect 26 15 34 0;
#X restore 212 404 pd turenas....................;
#X obj 181 143 vsl 15 60 0 1 0 0 \$0-vol empty empty 0 -9 0 10 -260097
-1 -1 2950 1;
#X obj 178 208 tgl 20 0 \$0-onoff empty empty 17 7 0 10 -262144 -1
-1 1 1;
#N canvas 0 22 823 607 onoffvol 0;
#X msg 246 167 \$1 200;
#X obj 243 198 line~;
#X obj 200 215 *~;
#X obj 263 285 line~;
#X obj 202 287 *~;
#X obj 296 211 route 1;
#X msg 264 256 1 200;
#X msg 343 236 0 200;
#X obj 297 132 inlet;
#X obj 380 136 inlet;
#X obj 192 132 inlet~;
#X obj 237 390 outlet~;
#X connect 0 0 1 0;
#X connect 1 0 2 1;
#X connect 2 0 4 0;
#X connect 3 0 4 1;
#X connect 4 0 11 0;
#X connect 5 0 6 0;
#X connect 5 1 7 0;
#X connect 6 0 3 0;
#X connect 7 0 3 0;
#X connect 8 0 0 0;
#X connect 9 0 5 0;
#X connect 10 0 2 0;
#X restore 74 482 pd onoffvol;
#N canvas 0 22 823 607 onoffvol 0;
#X msg 246 167 \$1 200;
#X obj 243 198 line~;
#X obj 200 215 *~;
#X obj 263 285 line~;
#X obj 202 287 *~;
#X obj 296 211 route 1;
#X msg 264 256 1 200;
#X msg 343 236 0 200;
#X obj 297 132 inlet;
#X obj 380 136 inlet;
#X obj 192 132 inlet~;
#X obj 237 390 outlet~;
#X connect 0 0 1 0;
#X connect 1 0 2 1;
#X connect 2 0 4 0;
#X connect 3 0 4 1;
#X connect 4 0 11 0;
#X connect 5 0 6 0;
#X connect 5 1 7 0;
#X connect 6 0 3 0;
#X connect 7 0 3 0;
#X connect 8 0 0 0;
#X connect 9 0 5 0;
#X connect 10 0 2 0;
#X restore 152 482 pd onoffvol;
#N canvas 0 22 823 607 onoffvol 0;
#X msg 246 167 \$1 200;
#X obj 243 198 line~;
#X obj 200 215 *~;
#X obj 263 285 line~;
#X obj 202 287 *~;
#X obj 296 211 route 1;
#X msg 264 256 1 200;
#X msg 343 236 0 200;
#X obj 297 132 inlet;
#X obj 380 136 inlet;
#X obj 192 132 inlet~;
#X obj 237 390 outlet~;
#X connect 0 0 1 0;
#X connect 1 0 2 1;
#X connect 2 0 4 0;
#X connect 3 0 4 1;
#X connect 4 0 11 0;
#X connect 5 0 6 0;
#X connect 5 1 7 0;
#X connect 6 0 3 0;
#X connect 7 0 3 0;
#X connect 8 0 0 0;
#X connect 9 0 5 0;
#X connect 10 0 2 0;
#X restore 230 481 pd onoffvol;
#N canvas 0 22 823 607 onoffvol 0;
#X msg 246 167 \$1 200;
#X obj 243 198 line~;
#X obj 200 215 *~;
#X obj 263 285 line~;
#X obj 202 287 *~;
#X obj 296 211 route 1;
#X msg 264 256 1 200;
#X msg 343 236 0 200;
#X obj 297 132 inlet;
#X obj 380 136 inlet;
#X obj 192 132 inlet~;
#X obj 237 390 outlet~;
#X connect 0 0 1 0;
#X connect 1 0 2 1;
#X connect 2 0 4 0;
#X connect 3 0 4 1;
#X connect 4 0 11 0;
#X connect 5 0 6 0;
#X connect 5 1 7 0;
#X connect 6 0 3 0;
#X connect 7 0 3 0;
#X connect 8 0 0 0;
#X connect 9 0 5 0;
#X connect 10 0 2 0;
#X restore 308 481 pd onoffvol;
#N canvas 0 22 823 607 onoffvol 0;
#X msg 246 167 \$1 200;
#X obj 243 198 line~;
#X obj 200 215 *~;
#X obj 263 285 line~;
#X obj 202 287 *~;
#X obj 296 211 route 1;
#X msg 264 256 1 200;
#X msg 343 236 0 200;
#X obj 297 132 inlet;
#X obj 380 136 inlet;
#X obj 192 132 inlet~;
#X obj 237 390 outlet~;
#X connect 0 0 1 0;
#X connect 1 0 2 1;
#X connect 2 0 4 0;
#X connect 3 0 4 1;
#X connect 4 0 11 0;
#X connect 5 0 6 0;
#X connect 5 1 7 0;
#X connect 6 0 3 0;
#X connect 7 0 3 0;
#X connect 8 0 0 0;
#X connect 9 0 5 0;
#X connect 10 0 2 0;
#X restore 392 483 pd onoffvol;
#N canvas 0 22 823 607 onoffvol 0;
#X msg 246 167 \$1 200;
#X obj 243 198 line~;
#X obj 200 215 *~;
#X obj 263 285 line~;
#X obj 202 287 *~;
#X obj 296 211 route 1;
#X msg 264 256 1 200;
#X msg 343 236 0 200;
#X obj 297 132 inlet;
#X obj 380 136 inlet;
#X obj 192 132 inlet~;
#X obj 237 390 outlet~;
#X connect 0 0 1 0;
#X connect 1 0 2 1;
#X connect 2 0 4 0;
#X connect 3 0 4 1;
#X connect 4 0 11 0;
#X connect 5 0 6 0;
#X connect 5 1 7 0;
#X connect 6 0 3 0;
#X connect 7 0 3 0;
#X connect 8 0 0 0;
#X connect 9 0 5 0;
#X connect 10 0 2 0;
#X restore 470 483 pd onoffvol;
#N canvas 0 22 823 607 onoffvol 0;
#X msg 246 167 \$1 200;
#X obj 243 198 line~;
#X obj 200 215 *~;
#X obj 263 285 line~;
#X obj 202 287 *~;
#X obj 296 211 route 1;
#X msg 264 256 1 200;
#X msg 343 236 0 200;
#X obj 297 132 inlet;
#X obj 380 136 inlet;
#X obj 192 132 inlet~;
#X obj 237 390 outlet~;
#X connect 0 0 1 0;
#X connect 1 0 2 1;
#X connect 2 0 4 0;
#X connect 3 0 4 1;
#X connect 4 0 11 0;
#X connect 5 0 6 0;
#X connect 5 1 7 0;
#X connect 6 0 3 0;
#X connect 7 0 3 0;
#X connect 8 0 0 0;
#X connect 9 0 5 0;
#X connect 10 0 2 0;
#X restore 548 482 pd onoffvol;
#N canvas 0 22 823 607 onoffvol 0;
#X msg 246 167 \$1 200;
#X obj 243 198 line~;
#X obj 200 215 *~;
#X obj 263 285 line~;
#X obj 202 287 *~;
#X obj 296 211 route 1;
#X msg 264 256 1 200;
#X msg 343 236 0 200;
#X obj 297 132 inlet;
#X obj 380 136 inlet;
#X obj 192 132 inlet~;
#X obj 237 390 outlet~;
#X connect 0 0 1 0;
#X connect 1 0 2 1;
#X connect 2 0 4 0;
#X connect 3 0 4 1;
#X connect 4 0 11 0;
#X connect 5 0 6 0;
#X connect 5 1 7 0;
#X connect 6 0 3 0;
#X connect 7 0 3 0;
#X connect 8 0 0 0;
#X connect 9 0 5 0;
#X connect 10 0 2 0;
#X restore 626 482 pd onoffvol;
#X obj 167 439 r \$0-vol;
#X obj 236 439 r \$0-onoff;
#X obj 464 426 r \$0-vol;
#X obj 533 426 r \$0-onoff;
#X obj 67 562 throw~ Spat-uno;
#X obj 166 562 throw~ Spat-dos;
#X obj 265 562 throw~ Spat-tre;
#X obj 364 562 throw~ Spat-cuatro;
#X obj 466 563 throw~ Spat-cinco;
#X obj 565 563 throw~ Spat-seis;
#X obj 664 563 throw~ Spat-siete;
#X obj 763 563 throw~ Spat-ocho;
#X obj 99 70 inlet;
#X obj 179 70 inlet;
#X obj 234 75 inlet;
#X connect 0 0 14 1;
#X connect 2 0 0 0;
#X connect 3 0 4 0;
#X connect 5 0 14 0;
#X connect 14 0 17 0;
#X connect 14 1 18 0;
#X connect 14 2 19 0;
#X connect 14 3 20 0;
#X connect 14 4 21 0;
#X connect 14 5 22 0;
#X connect 14 6 23 0;
#X connect 14 7 24 0;
#X connect 14 8 6 0;
#X connect 14 9 7 0;
#X connect 14 10 8 0;
#X connect 14 11 9 0;
#X connect 14 12 10 0;
#X connect 14 13 11 0;
#X connect 14 14 12 0;
#X connect 14 15 13 0;
#X connect 17 0 29 0;
#X connect 18 0 30 0;
#X connect 19 0 31 0;
#X connect 20 0 32 0;
#X connect 21 0 33 0;
#X connect 22 0 34 0;
#X connect 23 0 35 0;
#X connect 24 0 36 0;
#X connect 25 0 17 1;
#X connect 25 0 18 1;
#X connect 25 0 19 1;
#X connect 25 0 20 1;
#X connect 26 0 17 2;
#X connect 26 0 18 2;
#X connect 26 0 19 2;
#X connect 26 0 20 2;
#X connect 27 0 21 1;
#X connect 27 0 22 1;
#X connect 27 0 23 1;
#X connect 27 0 24 1;
#X connect 28 0 21 2;
#X connect 28 0 22 2;
#X connect 28 0 23 2;
#X connect 28 0 24 2;
#X connect 37 0 2 0;
#X connect 38 0 15 0;
#X connect 39 0 16 0;
#X coords 0 -1 1 1 100 130 2 100 100;
