#N canvas 99 85 1280 751 10;
#N canvas 52 25 1096 751 OUTPUT 0;
#X obj 1147 588 catch~ SINTE;
#X obj 355 892 catch~ GRAIN;
#X obj 455 894 catch~ MULTITAP;
#X obj 152 893 catch~ FLANGER;
#X obj 44 892 catch~ PITCHDELAY;
#X obj 72 -33 catch~ CH1;
#X obj 259 -38 catch~ CH3;
#X obj 1248 589 catch~ SINTE2;
#X obj 1353 588 catch~ SINTESeq;
#X obj 250 892 catch~ PHASER;
#X obj 363 -32 catch~ CH4;
#X obj 473 -36 catch~ CH5;
#X obj 560 -30 catch~ CH6;
#X obj 655 -28 catch~ CH7;
#X obj 746 -29 catch~ CH8;
#X obj 426 1260 dac~ 1 2 3 4 5 6 7 8;
#X obj 562 894 catch~ Player;
#X obj 1190 86 soundfiler;
#X obj 1190 45 loadbang;
#X obj 1190 109 table funcion_e;
#X msg 1190 66 read -resize funcion/funcion_e.aif funcion_e;
#X text 14 38 CHANNEL 1;
#X text 115 39 CHANNEL 2;
#X text 218 39 CHANNEL 3;
#X text 319 39 CHANNEL 4;
#X text 422 37 CHANNEL 5;
#X text 523 38 CHANNEL 6;
#X text 626 38 CHANNEL 7;
#X text 727 38 CHANNEL 8;
#X text 1146 599 SINTE 1;
#X text 1247 600 SINTE 2;
#X text 1350 600 SEQUENCER;
#X text 2 6 OUTPUT;
#X obj 71 1040 catch~ Spat-uno;
#X obj 170 1040 catch~ Spat-dos;
#X obj 269 1040 catch~ Spat-tre;
#X obj 368 1040 catch~ Spat-cuatro;
#X obj 470 1041 catch~ Spat-cinco;
#X obj 569 1041 catch~ Spat-seis;
#X obj 668 1041 catch~ Spat-siete;
#X obj 767 1041 catch~ Spat-ocho;
#X obj 147 -34 catch~ CH2;
#X text 1451 600 LIBRE;
#X text 14 188 PLAYER 1;
#X text 116 188 PLAYER 2;
#X obj 662 886 catch~ Player2;
#X text 12 346 PITCH DELAY;
#X text 114 347 FLANGER;
#X text 216 346 PHASER;
#X text 1194 794 LIBRE;
#X text 1296 793 LIBRE;
#X text 1397 794 LIBRE;
#X text 254 343 LIBRE;
#X text 317 347 GRAIN;
#X text 421 347 MULTITAP;
#X text 219 187 PLAYER 3;
#X obj 766 891 catch~ Player3;
#X obj 16 54 Chowning-Turenas;
#X obj 116 362 Chowning-Turenas;
#X obj 118 54 Chowning-Turenas;
#X obj 220 54 Chowning-Turenas;
#X obj 322 54 Chowning-Turenas;
#X obj 1148 615 Chowning-Turenas;
#X obj 1250 615 Chowning-Turenas;
#X obj 1352 615 Chowning-Turenas;
#X obj 1454 615 Chowning-Turenas;
#X obj 424 53 Chowning-Turenas;
#X obj 526 53 Chowning-Turenas;
#X obj 629 53 Chowning-Turenas;
#X obj 731 53 Chowning-Turenas;
#X obj 15 204 Chowning-Turenas;
#X obj 118 204 Chowning-Turenas;
#X obj 221 204 Chowning-Turenas;
#X obj 936 424 Chowning-Turenas;
#X obj 14 362 Chowning-Turenas;
#X obj 218 362 Chowning-Turenas;
#X obj 320 362 Chowning-Turenas;
#X obj 423 362 Chowning-Turenas;
#X obj 1196 809 Chowning-Turenas;
#X obj 1298 809 Chowning-Turenas;
#X obj 1400 809 Chowning-Turenas;
#X obj 73 -56 r on-off-ch1;
#X obj 153 -57 r on-off-ch2;
#X obj 261 -59 r on-off-ch3;
#X obj 360 -53 r on-off-ch4;
#X obj 474 -57 r on-off-ch5;
#X obj 554 -58 r on-off-ch6;
#X obj 662 -60 r on-off-ch7;
#X obj 742 -61 r on-off-ch8;
#X obj 72 920 r on-off-ch9;
#X obj 152 919 r on-off-ch10;
#X obj 260 917 r on-off-ch11;
#X obj 340 916 r on-off-ch12;
#X obj 473 919 r on-off-ch13;
#X obj 553 918 r on-off-ch14;
#X obj 661 916 r on-off-ch15;
#X obj 741 915 r on-off-ch16;
#X obj 73 -76 r vol-ch1;
#X obj 158 -75 r vol-ch2;
#X obj 263 -78 r vol-ch3;
#X obj 363 -75 r vol-ch4;
#X obj 474 -77 r vol-ch5;
#X obj 559 -76 r vol-ch6;
#X obj 664 -79 r vol-ch7;
#X obj 764 -78 r vol-ch8;
#X obj 85 937 r vol-ch9;
#X obj 170 938 r vol-ch10;
#X obj 275 935 r vol-ch11;
#X obj 375 938 r vol-ch12;
#X obj 486 936 r vol-ch13;
#X obj 571 937 r vol-ch14;
#X obj 676 934 r vol-ch15;
#X obj 776 935 r vol-ch16;
#X obj 9 -96 r pan-ch1;
#X obj 138 -102 r pan-ch2;
#X obj 244 -104 r pan-ch3;
#X obj 373 -105 r pan-ch4;
#X obj 463 -102 r pan-ch5;
#X obj 592 -108 r pan-ch6;
#X obj 698 -110 r pan-ch7;
#X obj 827 -111 r pan-ch8;
#X obj 46 980 r pan-ch9;
#X obj 175 974 r pan-ch10;
#X obj 281 972 r pan-ch11;
#X obj 410 971 r pan-ch12;
#X obj 500 974 r pan-ch13;
#X obj 629 968 r pan-ch14;
#X obj 735 966 r pan-ch15;
#X obj 864 965 r pan-ch16;
#X obj 244 1103 freeverb~;
#X obj 360 1098 freeverb~;
#X obj 500 1099 freeverb~;
#X obj 657 1108 freeverb~;
#N canvas 290 23 797 599 freeverb 0;
#X msg 312 59 roomsize \$1;
#X msg 312 104 damping \$1;
#X msg 312 148 width \$1;
#X msg 312 192 wet \$1;
#X msg 312 236 dry \$1;
#X obj 55 124 hsl 60 18 0 1 0 1 empty empty dry 2 9 1 12 -225271 -1
-1 5900 0;
#X obj 109 96 hsl 60 18 0 1 0 1 empty empty wet 2 9 1 12 -225271 -1
-1 5900 0;
#X obj 109 75 hsl 60 18 0 1 0 1 empty empty width 2 9 1 12 -262131
-1 -1 2800 0;
#X obj 14 95 hsl 60 18 0 2 0 1 empty empty damping 2 9 1 12 -261689
-1 -1 1800 0;
#X obj 14 73 hsl 60 18 0.11 1.1 0 1 empty empty roomsize 2 9 1 12 -261689
-1 -1 3700 0;
#X floatatom 78 75 3 0 0 0 - - -, f 3;
#X floatatom 78 97 3 0 0 0 - - -, f 3;
#X floatatom 173 77 3 0 0 0 - - -, f 3;
#X floatatom 173 98 3 0 0 0 - - -, f 3;
#X floatatom 119 126 3 0 0 0 - - -, f 3;
#X obj 36 52 hsl 128 15 0 1 0 0 empty empty empty -2 -8 0 10 -262144
-1 -1 0 1;
#X text 31 36 dry;
#X text 143 36 wet;
#X msg 53 239 wet \$1;
#X msg 101 239 dry \$1;
#N canvas 1 80 450 300 inv 0;
#X obj 154 69 inlet;
#X obj 154 179 outlet;
#X msg 154 124 1;
#X obj 154 97 t b f;
#X obj 154 151 -;
#X connect 0 0 3 0;
#X connect 2 0 4 0;
#X connect 3 0 2 0;
#X connect 3 1 4 1;
#X connect 4 0 1 0;
#X restore 101 212 pd inv;
#X floatatom 159 237 5 0 0 0 - - -, f 5;
#X obj 292 502 outlet~;
#X obj 290 403 line~;
#X msg 289 367 \$1 100;
#X connect 0 0 24 0;
#X connect 2 0 24 0;
#X connect 3 0 24 0;
#X connect 4 0 24 0;
#X connect 5 0 4 0;
#X connect 5 0 14 0;
#X connect 6 0 3 0;
#X connect 6 0 13 0;
#X connect 7 0 2 0;
#X connect 7 0 12 0;
#X connect 8 0 1 0;
#X connect 8 0 11 0;
#X connect 9 0 0 0;
#X connect 9 0 10 0;
#X connect 15 0 20 0;
#X connect 15 0 18 0;
#X connect 18 0 24 0;
#X connect 19 0 24 0;
#X connect 20 0 19 0;
#X connect 20 0 21 0;
#X connect 23 0 22 0;
#X connect 24 0 23 0;
#X coords 0 -1 1 1 200 150 1 0 0;
#X restore 632 345 pd freeverb;
#X obj 842 274 tgl 50 0 PANIC empty PANIC 0 -15 0 15 -258113 -1 -1
1 1;
#X obj 421 836 loadbang;
#X msg 398 859 1;
#X obj 851 384 vsl 30 100 0 1 0 0 MASTER_VOL empty MASTER -10 -15 0
15 -4034 -1 -1 5100 1;
#N canvas 0 22 450 300 panic 0;
#X obj 63 105 *~;
#X obj 81 140 *~;
#X msg 78 57 \$1 200;
#X obj 78 79 line~;
#X msg 117 77 \$1 200;
#X obj 117 99 line~;
#X obj 58 23 inlet~;
#X obj 94 195 outlet~;
#X obj 189 44 r PANIC;
#X obj 241 43 r MASTER_VOL;
#X connect 0 0 1 0;
#X connect 1 0 7 0;
#X connect 2 0 3 0;
#X connect 3 0 0 1;
#X connect 4 0 5 0;
#X connect 5 0 1 1;
#X connect 6 0 0 0;
#X connect 8 0 2 0;
#X connect 9 0 4 0;
#X restore 255 1157 pd panic;
#N canvas 0 22 450 300 panic 0;
#X obj 63 105 *~;
#X obj 81 140 *~;
#X msg 78 57 \$1 200;
#X obj 78 79 line~;
#X msg 117 77 \$1 200;
#X obj 117 99 line~;
#X obj 58 23 inlet~;
#X obj 94 195 outlet~;
#X obj 189 44 r PANIC;
#X obj 241 43 r MASTER_VOL;
#X connect 0 0 1 0;
#X connect 1 0 7 0;
#X connect 2 0 3 0;
#X connect 3 0 0 1;
#X connect 4 0 5 0;
#X connect 5 0 1 1;
#X connect 6 0 0 0;
#X connect 8 0 2 0;
#X connect 9 0 4 0;
#X restore 309 1157 pd panic;
#N canvas 0 22 450 300 panic 0;
#X obj 63 105 *~;
#X obj 81 140 *~;
#X msg 78 57 \$1 200;
#X obj 78 79 line~;
#X msg 117 77 \$1 200;
#X obj 117 99 line~;
#X obj 58 23 inlet~;
#X obj 94 195 outlet~;
#X obj 189 44 r PANIC;
#X obj 241 43 r MASTER_VOL;
#X connect 0 0 1 0;
#X connect 1 0 7 0;
#X connect 2 0 3 0;
#X connect 3 0 0 1;
#X connect 4 0 5 0;
#X connect 5 0 1 1;
#X connect 6 0 0 0;
#X connect 8 0 2 0;
#X connect 9 0 4 0;
#X restore 364 1157 pd panic;
#N canvas 0 22 450 300 panic 0;
#X obj 63 105 *~;
#X obj 81 140 *~;
#X msg 78 57 \$1 200;
#X obj 78 79 line~;
#X msg 117 77 \$1 200;
#X obj 117 99 line~;
#X obj 58 23 inlet~;
#X obj 94 195 outlet~;
#X obj 189 44 r PANIC;
#X obj 241 43 r MASTER_VOL;
#X connect 0 0 1 0;
#X connect 1 0 7 0;
#X connect 2 0 3 0;
#X connect 3 0 0 1;
#X connect 4 0 5 0;
#X connect 5 0 1 1;
#X connect 6 0 0 0;
#X connect 8 0 2 0;
#X connect 9 0 4 0;
#X restore 418 1157 pd panic;
#N canvas 0 22 450 300 panic 0;
#X obj 63 105 *~;
#X obj 81 140 *~;
#X msg 78 57 \$1 200;
#X obj 78 79 line~;
#X msg 117 77 \$1 200;
#X obj 117 99 line~;
#X obj 58 23 inlet~;
#X obj 94 195 outlet~;
#X obj 189 44 r PANIC;
#X obj 241 43 r MASTER_VOL;
#X connect 0 0 1 0;
#X connect 1 0 7 0;
#X connect 2 0 3 0;
#X connect 3 0 0 1;
#X connect 4 0 5 0;
#X connect 5 0 1 1;
#X connect 6 0 0 0;
#X connect 8 0 2 0;
#X connect 9 0 4 0;
#X restore 502 1158 pd panic;
#N canvas 0 22 450 300 panic 0;
#X obj 63 105 *~;
#X obj 81 140 *~;
#X msg 78 57 \$1 200;
#X obj 78 79 line~;
#X msg 117 77 \$1 200;
#X obj 117 99 line~;
#X obj 58 23 inlet~;
#X obj 94 195 outlet~;
#X obj 189 44 r PANIC;
#X obj 241 43 r MASTER_VOL;
#X connect 0 0 1 0;
#X connect 1 0 7 0;
#X connect 2 0 3 0;
#X connect 3 0 0 1;
#X connect 4 0 5 0;
#X connect 5 0 1 1;
#X connect 6 0 0 0;
#X connect 8 0 2 0;
#X connect 9 0 4 0;
#X restore 556 1158 pd panic;
#N canvas 0 22 450 300 panic 0;
#X obj 63 105 *~;
#X obj 81 140 *~;
#X msg 78 57 \$1 200;
#X obj 78 79 line~;
#X msg 117 77 \$1 200;
#X obj 117 99 line~;
#X obj 58 23 inlet~;
#X obj 94 195 outlet~;
#X obj 189 44 r PANIC;
#X obj 241 43 r MASTER_VOL;
#X connect 0 0 1 0;
#X connect 1 0 7 0;
#X connect 2 0 3 0;
#X connect 3 0 0 1;
#X connect 4 0 5 0;
#X connect 5 0 1 1;
#X connect 6 0 0 0;
#X connect 8 0 2 0;
#X connect 9 0 4 0;
#X restore 611 1158 pd panic;
#N canvas 0 22 450 300 panic 0;
#X obj 63 105 *~;
#X obj 81 140 *~;
#X msg 78 57 \$1 200;
#X obj 78 79 line~;
#X msg 117 77 \$1 200;
#X obj 117 99 line~;
#X obj 58 23 inlet~;
#X obj 94 195 outlet~;
#X obj 189 44 r PANIC;
#X obj 241 43 r MASTER_VOL;
#X connect 0 0 1 0;
#X connect 1 0 7 0;
#X connect 2 0 3 0;
#X connect 3 0 0 1;
#X connect 4 0 5 0;
#X connect 5 0 1 1;
#X connect 6 0 0 0;
#X connect 8 0 2 0;
#X connect 9 0 4 0;
#X restore 665 1158 pd panic;
#X msg 397 820 0.75;
#N canvas 517 23 743 518 grabacion 0;
#X msg 393 235 start;
#X msg 434 236 stop;
#X obj 440 489 writesf~ 2;
#X obj 105 299 inlet~;
#X obj 148 299 inlet~;
#X obj 69 156 r START;
#X obj 124 156 r STOP;
#X msg 483 234 open REGISTRO-Stereo.wav;
#X obj 375 178 t b b;
#X connect 0 0 2 0;
#X connect 1 0 2 0;
#X connect 3 0 2 0;
#X connect 4 0 2 1;
#X connect 5 0 8 0;
#X connect 6 0 1 0;
#X connect 7 0 2 0;
#X connect 8 0 0 0;
#X connect 8 1 7 0;
#X restore 410 1230 pd grabacion ..............;
#X obj 652 582 bng 80 250 50 0 START empty START_REC 0 -14 0 15 -4034
-1 -1;
#X obj 740 582 bng 80 250 50 0 STOP empty STOP_REC 0 -14 0 15 -258113
-1 -1;
#X obj 525 362 Chowning-Turenas;
#X text 523 346 EQ;
#X obj 543 338 catch~ EQ;
#X obj 425 204 Chowning-Turenas;
#X obj 528 204 Chowning-Turenas;
#X obj 631 204 Chowning-Turenas;
#X text 424 188 SINTE1;
#X text 526 188 SINTE2;
#X text 629 187 SEQ;
#X obj 448 187 catch~ SINTE;
#X obj 532 185 catch~ SINTE2;
#X obj 744 214 catch~ SINTESeq;
#X connect 0 0 62 0;
#X connect 1 0 76 3;
#X connect 2 0 77 3;
#X connect 3 0 58 3;
#X connect 4 0 74 3;
#X connect 5 0 57 3;
#X connect 6 0 60 3;
#X connect 7 0 63 0;
#X connect 8 0 64 0;
#X connect 9 0 75 3;
#X connect 10 0 61 3;
#X connect 11 0 66 3;
#X connect 12 0 67 3;
#X connect 13 0 68 3;
#X connect 14 0 69 3;
#X connect 16 0 70 3;
#X connect 18 0 20 0;
#X connect 20 0 17 0;
#X connect 33 0 129 0;
#X connect 34 0 129 1;
#X connect 35 0 130 0;
#X connect 36 0 130 1;
#X connect 37 0 131 0;
#X connect 38 0 131 1;
#X connect 39 0 132 0;
#X connect 40 0 132 1;
#X connect 41 0 59 3;
#X connect 45 0 71 3;
#X connect 56 0 72 3;
#X connect 81 0 57 2;
#X connect 82 0 59 2;
#X connect 83 0 60 2;
#X connect 84 0 61 2;
#X connect 85 0 66 2;
#X connect 86 0 67 2;
#X connect 87 0 68 2;
#X connect 88 0 69 2;
#X connect 89 0 74 2;
#X connect 90 0 58 2;
#X connect 91 0 75 2;
#X connect 92 0 76 2;
#X connect 93 0 77 2;
#X connect 94 0 70 2;
#X connect 95 0 71 2;
#X connect 96 0 72 2;
#X connect 97 0 57 1;
#X connect 98 0 59 1;
#X connect 99 0 60 1;
#X connect 100 0 61 1;
#X connect 101 0 66 1;
#X connect 102 0 67 1;
#X connect 103 0 68 1;
#X connect 104 0 69 1;
#X connect 105 0 74 1;
#X connect 106 0 58 1;
#X connect 107 0 75 1;
#X connect 108 0 76 1;
#X connect 109 0 77 1;
#X connect 110 0 70 1;
#X connect 111 0 71 1;
#X connect 112 0 72 1;
#X connect 113 0 57 0;
#X connect 114 0 59 0;
#X connect 115 0 60 0;
#X connect 116 0 61 0;
#X connect 117 0 66 0;
#X connect 118 0 67 0;
#X connect 119 0 68 0;
#X connect 120 0 69 0;
#X connect 121 0 74 0;
#X connect 122 0 58 0;
#X connect 123 0 75 0;
#X connect 124 0 76 0;
#X connect 125 0 77 0;
#X connect 126 0 70 0;
#X connect 127 0 71 0;
#X connect 128 0 72 0;
#X connect 129 0 138 0;
#X connect 129 1 139 0;
#X connect 130 0 140 0;
#X connect 130 1 141 0;
#X connect 131 0 142 0;
#X connect 131 1 143 0;
#X connect 132 0 144 0;
#X connect 132 1 145 0;
#X connect 135 0 136 0;
#X connect 135 0 146 0;
#X connect 136 0 134 0;
#X connect 138 0 15 0;
#X connect 138 0 147 0;
#X connect 139 0 15 1;
#X connect 139 0 147 1;
#X connect 140 0 15 2;
#X connect 141 0 15 3;
#X connect 142 0 15 4;
#X connect 143 0 15 5;
#X connect 144 0 15 6;
#X connect 145 0 15 7;
#X connect 146 0 137 0;
#X connect 152 0 150 3;
#X connect 159 0 153 3;
#X connect 160 0 154 3;
#X connect 161 0 155 3;
#X coords 0 -1 1 1 900 500 2 0 0;
#X restore 11 192 pd OUTPUT;
#N canvas 150 143 1280 658 INPUTS 0;
#X obj 2 16 BOARD-INPUTS;
#X text 4 0 INPUTS;
#X obj 727 10 r on-off_sinte1;
#X obj 619 11 r vol_sinte1;
#X obj 862 9 r vol_sinte2;
#X obj 970 8 r on-off_sinte2;
#X obj 626 210 r vol_seq;
#X obj 748 209 r on-off_seq;
#X obj 212 303 r vol_player2;
#X obj 297 303 r on-off_player2;
#X obj 426 302 r vol_player3;
#X obj 511 302 r on-off_player3;
#N canvas 494 61 218 140 player-uno 0;
#N canvas 281 64 1080 526 player 0;
#X obj 108 141 sfplayer;
#X obj 271 178 tgl 20 0 empty empty empty 17 7 0 10 -261682 -1 -1 0
1;
#X obj 674 177 line~;
#X obj 610 185 *~;
#X obj 714 122 route 1;
#X msg 720 146 1 200;
#X obj 273 109 vsl 15 60 0 1 0 0 empty empty empty 0 -9 0 10 -261682
-1 -1 0 1;
#X msg 493 119 \$1 200;
#X obj 490 150 line~;
#X obj 426 158 *~;
#X obj 414 281 throw~ Player;
#X obj 504 282 throw~ Player-PROC;
#X msg 765 147 0 200;
#X obj 175 62 inlet;
#X obj 261 65 inlet;
#X text 104 105 PLAYER 1;
#X obj 47 255 tgl 15 0 empty empty empty 17 7 0 10 -262144 -1 -1 0
1;
#X floatatom 176 179 5 0 0 0 - - -, f 5;
#X floatatom 138 179 5 0 0 0 - - -, f 5;
#X obj 161 315 bng 15 250 50 0 empty empty empty 17 7 0 10 -262144
-1 -1;
#X msg 127 278 reset;
#X obj 19 273 bng 15 250 50 0 empty empty empty 17 7 0 10 -262144 -1
-1;
#X obj 47 319 counter 0 60;
#X obj 43 383 route 60;
#X msg 169 277 reset;
#X obj 130 221 t a b b;
#X obj 159 345 counter 0 60;
#X obj 45 287 metro 1000;
#X connect 0 0 9 0;
#X connect 0 1 25 0;
#X connect 1 0 4 0;
#X connect 2 0 3 1;
#X connect 3 0 10 0;
#X connect 4 0 5 0;
#X connect 4 1 12 0;
#X connect 5 0 2 0;
#X connect 6 0 7 0;
#X connect 7 0 8 0;
#X connect 8 0 9 1;
#X connect 9 0 3 0;
#X connect 9 0 11 0;
#X connect 12 0 2 0;
#X connect 13 0 6 0;
#X connect 14 0 1 0;
#X connect 16 0 27 0;
#X connect 17 0 23 0;
#X connect 19 0 20 0;
#X connect 19 0 26 0;
#X connect 20 0 22 0;
#X connect 21 0 22 0;
#X connect 22 0 17 0;
#X connect 23 0 19 0;
#X connect 24 0 26 0;
#X connect 25 0 16 0;
#X connect 25 1 20 0;
#X connect 25 2 24 0;
#X connect 26 0 18 0;
#X connect 27 0 22 0;
#X coords 0 -1 1 1 200 100 2 100 100;
#X restore 4 29 pd player;
#X obj 4 11 inlet;
#X obj 170 11 inlet;
#X connect 1 0 0 0;
#X connect 2 0 0 1;
#X restore 23 347 pd player-uno;
#X obj -9 299 r vol_player1;
#X obj 76 299 r on-off_player1;
#X msg 56 231 \; pd-player-uno vis 1;
#X obj 287 145 bng 15 250 50 0 empty empty empty 17 7 0 10 -262144
-1 -1;
#X obj 339 145 bng 15 250 50 0 empty empty empty 17 7 0 10 -262144
-1 -1;
#X msg 187 236 \; pd-player-dos vis 1;
#N canvas 238 67 254 132 player-dos 0;
#N canvas 297 213 1080 526 player 0;
#X obj 271 178 tgl 20 0 empty empty empty 17 7 0 10 -261682 -1 -1 0
1;
#X obj 674 177 line~;
#X obj 610 185 *~;
#X obj 714 122 route 1;
#X msg 720 146 1 200;
#X obj 273 109 vsl 15 60 0 1 0 0 empty empty empty 0 -9 0 10 -261682
-1 -1 0 1;
#X msg 493 119 \$1 200;
#X obj 490 150 line~;
#X obj 426 158 *~;
#X msg 765 147 0 200;
#X obj 414 281 throw~ Player2;
#X obj 504 282 throw~ Player2-PROC;
#X obj 210 69 inlet;
#X obj 250 65 inlet;
#X text 107 105 PLAYER 2;
#X obj 107 143 sfplayer;
#X connect 0 0 3 0;
#X connect 1 0 2 1;
#X connect 2 0 10 0;
#X connect 3 0 4 0;
#X connect 3 1 9 0;
#X connect 4 0 1 0;
#X connect 5 0 6 0;
#X connect 6 0 7 0;
#X connect 7 0 8 1;
#X connect 8 0 2 0;
#X connect 8 0 11 0;
#X connect 9 0 1 0;
#X connect 12 0 5 0;
#X connect 13 0 0 0;
#X connect 15 0 8 0;
#X coords 0 -1 1 1 200 100 2 100 100;
#X restore 6 17 pd player;
#X obj 199 -1 inlet;
#X obj 6 -1 inlet;
#X connect 1 0 0 1;
#X connect 2 0 0 0;
#X restore 231 354 pd player-dos;
#X obj 393 145 bng 15 250 50 0 empty empty empty 17 7 0 10 -262144
-1 -1;
#X msg 197 197 \; pd-player-tres vis 1;
#N canvas 307 158 221 149 player-tres 0;
#N canvas 296 214 1080 526 player 0;
#X obj 271 178 tgl 20 0 empty empty empty 17 7 0 10 -261682 -1 -1 0
1;
#X obj 674 177 line~;
#X obj 610 185 *~;
#X obj 714 122 route 1;
#X msg 720 146 1 200;
#X obj 273 109 vsl 15 60 0 1 0 0 empty empty empty 0 -9 0 10 -261682
-1 -1 0 1;
#X msg 493 119 \$1 200;
#X obj 490 150 line~;
#X obj 426 158 *~;
#X msg 765 147 0 200;
#X obj 210 69 inlet;
#X obj 250 65 inlet;
#X obj 414 281 throw~ Player3;
#X obj 504 282 throw~ Player3-PROC;
#X text 100 104 PLAYER 3;
#X obj 107 143 sfplayer;
#X connect 0 0 3 0;
#X connect 1 0 2 1;
#X connect 2 0 12 0;
#X connect 3 0 4 0;
#X connect 3 1 9 0;
#X connect 4 0 1 0;
#X connect 5 0 6 0;
#X connect 6 0 7 0;
#X connect 7 0 8 1;
#X connect 8 0 2 0;
#X connect 8 0 13 0;
#X connect 9 0 1 0;
#X connect 10 0 5 0;
#X connect 11 0 0 0;
#X connect 15 0 8 0;
#X coords 0 -1 1 1 200 100 2 100 100;
#X restore 3 26 pd player;
#X obj 3 8 inlet;
#X obj 169 8 inlet;
#X connect 1 0 0 0;
#X connect 2 0 0 1;
#X restore 481 353 pd player-tres;
#X obj 456 146 bng 15 250 50 0 empty empty empty 17 7 0 10 -262144
-1 -1;
#X msg 346 210 \; pd-SINTE-ABS vis 1;
#N canvas 289 161 232 211 SINTE-ABS 0;
#X obj 14 38 SINTE-ABS;
#X obj 14 20 inlet;
#X obj 180 20 inlet;
#X connect 1 0 0 0;
#X connect 2 0 0 1;
#X restore 668 57 pd SINTE-ABS;
#X obj 503 146 bng 15 250 50 0 empty empty empty 17 7 0 10 -262144
-1 -1;
#X msg 462 212 \; pd-SINTE2-ABS vis 1;
#N canvas 179 144 232 194 SINTE2-ABS 0;
#X obj 17 31 SINTE2-ABS;
#X obj 17 13 inlet;
#X obj 183 14 inlet;
#X connect 1 0 0 0;
#X connect 2 0 0 1;
#X restore 908 49 pd SINTE2-ABS;
#X obj 553 146 bng 15 250 50 0 empty empty empty 17 7 0 10 -262144
-1 -1;
#X msg 620 153 \; pd-SEQUENCER vis 1;
#N canvas 0 23 1038 292 SEQUENCER 0;
#X obj 7 23 SEQUENCER;
#X obj 7 5 inlet;
#X obj 973 5 inlet;
#X connect 1 0 0 0;
#X connect 2 0 0 1;
#X restore 749 266 pd SEQUENCER;
#X connect 2 0 25 1;
#X connect 3 0 25 0;
#X connect 4 0 28 0;
#X connect 5 0 28 1;
#X connect 6 0 31 0;
#X connect 7 0 31 1;
#X connect 8 0 19 0;
#X connect 9 0 19 1;
#X connect 10 0 22 0;
#X connect 11 0 22 1;
#X connect 13 0 12 0;
#X connect 14 0 12 1;
#X connect 16 0 15 0;
#X connect 17 0 18 0;
#X connect 20 0 21 0;
#X connect 23 0 24 0;
#X connect 26 0 27 0;
#X connect 29 0 30 0;
#X coords 0 -1 1 1 610 170 2 0 0;
#X restore 10 14 pd INPUTS;
#N canvas 5 31 1280 695 FX 0;
#X obj 752 199 multitap;
#N canvas 0 22 1280 751 MATRIX 0;
#X text 123 129 CH 1;
#X text 123 169 CH 2;
#X text 123 209 CH 3;
#X text 123 249 CH 4;
#X text 123 290 CH 5;
#X text 123 331 CH 6;
#X text 123 372 CH 7;
#X text 123 413 CH 8;
#X text 106 599 SINTE 1;
#X text 106 640 SINTE 2;
#X text 130 681 SEQ;
#X obj -8 555 catch~ SINTE-PROC;
#X obj -22 602 catch~ SINTE2-PROC;
#X obj -10 91 catch~ CH1-PROC;
#X obj -11 131 catch~ CH2-PROC;
#X obj -31 643 catch~ SINTESeq-PROC;
#X obj -11 173 catch~ CH3-PROC;
#X obj -10 213 catch~ CH4-PROC;
#X obj -8 255 catch~ CH5-PROC;
#X obj -9 295 catch~ CH6-PROC;
#X obj -9 337 catch~ CH7-PROC;
#X obj -8 377 catch~ CH8-PROC;
#X text 100 468 PLAYER 1;
#X obj -32 430 catch~ Player-PROC;
#X text 100 509 PLAYER 2;
#X obj -32 467 catch~ Player2-PROC;
#X obj -32 508 catch~ Player3-PROC;
#X text 100 550 PLAYER 3;
#X obj 151 104 MODULO-MIX CH1;
#X obj 151 144 MODULO-MIX CH1;
#X obj 151 184 MODULO-MIX CH1;
#X obj 151 224 MODULO-MIX CH1;
#X obj 151 264 MODULO-MIX CH1;
#X obj 151 304 MODULO-MIX CH1;
#X obj 151 344 MODULO-MIX CH1;
#X obj 151 384 MODULO-MIX CH1;
#X obj 152 444 MODULO-MIX CH1;
#X obj 152 484 MODULO-MIX CH1;
#X obj 152 524 MODULO-MIX CH1;
#X obj 152 577 MODULO-MIX CH1;
#X obj 152 617 MODULO-MIX CH1;
#X obj 152 657 MODULO-MIX CH1;
#X connect 11 0 39 0;
#X connect 12 0 40 0;
#X connect 13 0 28 0;
#X connect 14 0 29 0;
#X connect 15 0 41 0;
#X connect 16 0 30 0;
#X connect 17 0 31 0;
#X connect 18 0 32 0;
#X connect 19 0 33 0;
#X connect 20 0 34 0;
#X connect 21 0 35 0;
#X connect 23 0 36 0;
#X connect 25 0 37 0;
#X connect 26 0 38 0;
#X coords 0 -1 1 1 380 600 2 100 100;
#X restore 5 26 pd MATRIX;
#X obj 543 51 PITCH-DELAY;
#X obj 752 51 Phaser;
#X obj 543 381 Flanger;
#X obj 753 381 Granulador;
#X coords 0 -1 1 1 390 630 1 0 0;
#X restore 916 20 pd FX;
#N canvas 165 117 1280 719 MIDI 0;
#X floatatom 23 103 5 0 0 0 - - -, f 5;
#X obj 178 692 ctlin;
#X floatatom 165 737 5 0 0 0 - - -, f 5;
#X floatatom 212 742 5 0 0 0 - - -, f 5;
#X floatatom 294 730 5 0 0 0 - - -, f 5;
#X obj 23 63 ctlin 16 1;
#X floatatom 90 103 5 0 0 0 - - -, f 5;
#X obj 90 63 ctlin 17 1;
#X floatatom 158 102 5 0 0 0 - - -, f 5;
#X floatatom 225 102 5 0 0 0 - - -, f 5;
#X obj 158 62 ctlin 18 1;
#X obj 225 62 ctlin 19 1;
#X floatatom 292 102 5 0 0 0 - - -, f 5;
#X floatatom 359 102 5 0 0 0 - - -, f 5;
#X floatatom 427 101 5 0 0 0 - - -, f 5;
#X floatatom 494 101 5 0 0 0 - - -, f 5;
#X obj 292 62 ctlin 20 1;
#X obj 359 62 ctlin 21 1;
#X obj 427 61 ctlin 22 1;
#X obj 494 61 ctlin 23 1;
#X floatatom 575 101 5 0 0 0 - - -, f 5;
#X floatatom 642 101 5 0 0 0 - - -, f 5;
#X floatatom 710 100 5 0 0 0 - - -, f 5;
#X floatatom 777 100 5 0 0 0 - - -, f 5;
#X floatatom 844 100 5 0 0 0 - - -, f 5;
#X floatatom 911 100 5 0 0 0 - - -, f 5;
#X floatatom 979 99 5 0 0 0 - - -, f 5;
#X floatatom 1046 99 5 0 0 0 - - -, f 5;
#X obj 575 61 ctlin 16 17;
#X obj 642 61 ctlin 17 17;
#X obj 710 60 ctlin 18 17;
#X obj 777 60 ctlin 19 17;
#X obj 844 60 ctlin 20 17;
#X obj 911 60 ctlin 21 17;
#X obj 979 59 ctlin 22 17;
#X obj 1046 59 ctlin 23 17;
#X text 24 39 PAN;
#X floatatom 25 506 5 0 0 0 - - -, f 5;
#X floatatom 92 506 5 0 0 0 - - -, f 5;
#X floatatom 160 505 5 0 0 0 - - -, f 5;
#X floatatom 227 505 5 0 0 0 - - -, f 5;
#X floatatom 294 505 5 0 0 0 - - -, f 5;
#X floatatom 361 505 5 0 0 0 - - -, f 5;
#X floatatom 429 504 5 0 0 0 - - -, f 5;
#X floatatom 496 504 5 0 0 0 - - -, f 5;
#X floatatom 577 504 5 0 0 0 - - -, f 5;
#X floatatom 644 504 5 0 0 0 - - -, f 5;
#X floatatom 712 503 5 0 0 0 - - -, f 5;
#X floatatom 779 503 5 0 0 0 - - -, f 5;
#X floatatom 846 503 5 0 0 0 - - -, f 5;
#X floatatom 913 503 5 0 0 0 - - -, f 5;
#X floatatom 981 502 5 0 0 0 - - -, f 5;
#X floatatom 1048 502 5 0 0 0 - - -, f 5;
#X text 26 442 VOL;
#X obj 25 466 ctlin 0 1;
#X obj 92 466 ctlin 1 1;
#X obj 160 465 ctlin 2 1;
#X obj 227 465 ctlin 3 1;
#X obj 294 465 ctlin 4 1;
#X obj 361 465 ctlin 5 1;
#X obj 429 464 ctlin 6 1;
#X obj 496 464 ctlin 7 1;
#X obj 577 464 ctlin 0 17;
#X obj 644 464 ctlin 1 17;
#X obj 712 463 ctlin 2 17;
#X obj 779 463 ctlin 3 17;
#X obj 846 463 ctlin 4 17;
#X obj 913 463 ctlin 5 17;
#X obj 981 462 ctlin 6 17;
#X obj 1048 462 ctlin 7 17;
#X obj 23 622 ctlin 32 1;
#N canvas 0 23 1004 686 on-off 0;
#X floatatom 63 190 5 0 0 0 - - -, f 5;
#X obj 47 110 bng 15 250 50 0 empty empty empty 17 7 0 10 -262144 -1
-1;
#X obj 51 150 counter 2;
#X obj 63 219 route 1 2;
#X obj 76 273 tgl 15 0 empty empty empty 17 7 0 10 -262144 -1 -1 1
1;
#X obj 45 75 route 127;
#X floatatom 70 45 5 0 0 0 - - -, f 5;
#X obj 68 13 inlet;
#X obj 80 303 outlet;
#X obj 138 94 loadbang;
#X connect 0 0 3 0;
#X connect 1 0 2 0;
#X connect 2 0 0 0;
#X connect 3 0 4 0;
#X connect 3 1 4 0;
#X connect 4 0 8 0;
#X connect 5 0 1 0;
#X connect 6 0 5 0;
#X connect 7 0 6 0;
#X connect 9 0 1 0;
#X restore 24 641 pd on-off;
#X obj 24 675 tgl 15 0 on-off-ch1 empty empty 17 7 0 10 -262144 -1
-1 1 1;
#X text 21 604 ON-OFF;
#N canvas 0 23 1004 686 on-off 0;
#X floatatom 63 190 5 0 0 0 - - -, f 5;
#X obj 47 110 bng 15 250 50 0 empty empty empty 17 7 0 10 -262144 -1
-1;
#X obj 51 150 counter 2;
#X obj 63 219 route 1 2;
#X obj 76 273 tgl 15 0 empty empty empty 17 7 0 10 -262144 -1 -1 1
1;
#X obj 45 75 route 127;
#X floatatom 70 45 5 0 0 0 - - -, f 5;
#X obj 68 13 inlet;
#X obj 80 303 outlet;
#X obj 127 76 loadbang;
#X connect 0 0 3 0;
#X connect 1 0 2 0;
#X connect 2 0 0 0;
#X connect 3 0 4 0;
#X connect 3 1 4 0;
#X connect 4 0 8 0;
#X connect 5 0 1 0;
#X connect 6 0 5 0;
#X connect 7 0 6 0;
#X connect 9 0 1 0;
#X restore 92 640 pd on-off;
#X obj 92 674 tgl 15 0 on-off-ch2 empty empty 17 7 0 10 -262144 -1
-1 1 1;
#N canvas 0 23 1004 686 on-off 0;
#X floatatom 63 190 5 0 0 0 - - -, f 5;
#X obj 47 110 bng 15 250 50 0 empty empty empty 17 7 0 10 -262144 -1
-1;
#X obj 51 150 counter 2;
#X obj 63 219 route 1 2;
#X obj 76 273 tgl 15 0 empty empty empty 17 7 0 10 -262144 -1 -1 1
1;
#X obj 45 75 route 127;
#X floatatom 70 45 5 0 0 0 - - -, f 5;
#X obj 68 13 inlet;
#X obj 80 303 outlet;
#X obj 138 94 loadbang;
#X connect 0 0 3 0;
#X connect 1 0 2 0;
#X connect 2 0 0 0;
#X connect 3 0 4 0;
#X connect 3 1 4 0;
#X connect 4 0 8 0;
#X connect 5 0 1 0;
#X connect 6 0 5 0;
#X connect 7 0 6 0;
#X connect 9 0 1 0;
#X restore 162 640 pd on-off;
#X obj 162 674 tgl 15 0 on-off-ch3 empty empty 17 7 0 10 -262144 -1
-1 1 1;
#N canvas 0 23 1004 686 on-off 0;
#X floatatom 63 190 5 0 0 0 - - -, f 5;
#X obj 47 110 bng 15 250 50 0 empty empty empty 17 7 0 10 -262144 -1
-1;
#X obj 51 150 counter 2;
#X obj 63 219 route 1 2;
#X obj 76 273 tgl 15 0 empty empty empty 17 7 0 10 -262144 -1 -1 1
1;
#X obj 45 75 route 127;
#X floatatom 70 45 5 0 0 0 - - -, f 5;
#X obj 68 13 inlet;
#X obj 80 303 outlet;
#X obj 138 94 loadbang;
#X connect 0 0 3 0;
#X connect 1 0 2 0;
#X connect 2 0 0 0;
#X connect 3 0 4 0;
#X connect 3 1 4 0;
#X connect 4 0 8 0;
#X connect 5 0 1 0;
#X connect 6 0 5 0;
#X connect 7 0 6 0;
#X connect 9 0 1 0;
#X restore 230 639 pd on-off;
#X obj 230 673 tgl 15 0 on-off-ch4 empty empty 17 7 0 10 -262144 -1
-1 1 1;
#N canvas 0 23 1004 686 on-off 0;
#X floatatom 63 190 5 0 0 0 - - -, f 5;
#X obj 47 110 bng 15 250 50 0 empty empty empty 17 7 0 10 -262144 -1
-1;
#X obj 51 150 counter 2;
#X obj 63 219 route 1 2;
#X obj 76 273 tgl 15 0 empty empty empty 17 7 0 10 -262144 -1 -1 1
1;
#X obj 45 75 route 127;
#X floatatom 70 45 5 0 0 0 - - -, f 5;
#X obj 68 13 inlet;
#X obj 80 303 outlet;
#X obj 138 94 loadbang;
#X connect 0 0 3 0;
#X connect 1 0 2 0;
#X connect 2 0 0 0;
#X connect 3 0 4 0;
#X connect 3 1 4 0;
#X connect 4 0 8 0;
#X connect 5 0 1 0;
#X connect 6 0 5 0;
#X connect 7 0 6 0;
#X connect 9 0 1 0;
#X restore 298 639 pd on-off;
#X obj 298 673 tgl 15 0 on-off-ch5 empty empty 17 7 0 10 -262144 -1
-1 1 1;
#N canvas 0 23 1004 686 on-off 0;
#X floatatom 63 190 5 0 0 0 - - -, f 5;
#X obj 47 110 bng 15 250 50 0 empty empty empty 17 7 0 10 -262144 -1
-1;
#X obj 51 150 counter 2;
#X obj 63 219 route 1 2;
#X obj 76 273 tgl 15 0 empty empty empty 17 7 0 10 -262144 -1 -1 1
1;
#X obj 45 75 route 127;
#X floatatom 70 45 5 0 0 0 - - -, f 5;
#X obj 68 13 inlet;
#X obj 80 303 outlet;
#X obj 156 81 loadbang;
#X connect 0 0 3 0;
#X connect 1 0 2 0;
#X connect 2 0 0 0;
#X connect 3 0 4 0;
#X connect 3 1 4 0;
#X connect 4 0 8 0;
#X connect 5 0 1 0;
#X connect 6 0 5 0;
#X connect 7 0 6 0;
#X connect 9 0 1 0;
#X restore 366 638 pd on-off;
#X obj 366 672 tgl 15 0 on-off-ch6 empty empty 17 7 0 10 -262144 -1
-1 1 1;
#N canvas 0 23 1004 686 on-off 0;
#X floatatom 63 190 5 0 0 0 - - -, f 5;
#X obj 47 110 bng 15 250 50 0 empty empty empty 17 7 0 10 -262144 -1
-1;
#X obj 51 150 counter 2;
#X obj 63 219 route 1 2;
#X obj 76 273 tgl 15 0 empty empty empty 17 7 0 10 -262144 -1 -1 1
1;
#X obj 45 75 route 127;
#X floatatom 70 45 5 0 0 0 - - -, f 5;
#X obj 68 13 inlet;
#X obj 80 303 outlet;
#X obj 194 159 loadbang;
#X connect 0 0 3 0;
#X connect 1 0 2 0;
#X connect 2 0 0 0;
#X connect 3 0 4 0;
#X connect 3 1 4 0;
#X connect 4 0 8 0;
#X connect 5 0 1 0;
#X connect 6 0 5 0;
#X connect 7 0 6 0;
#X connect 9 0 1 0;
#X restore 436 638 pd on-off;
#X obj 436 672 tgl 15 0 on-off-ch7 empty empty 17 7 0 10 -262144 -1
-1 1 1;
#N canvas 0 23 1004 686 on-off 0;
#X floatatom 63 190 5 0 0 0 - - -, f 5;
#X obj 47 110 bng 15 250 50 0 empty empty empty 17 7 0 10 -262144 -1
-1;
#X obj 51 150 counter 2;
#X obj 63 219 route 1 2;
#X obj 76 273 tgl 15 0 empty empty empty 17 7 0 10 -262144 -1 -1 1
1;
#X obj 45 75 route 127;
#X floatatom 70 45 5 0 0 0 - - -, f 5;
#X obj 68 13 inlet;
#X obj 80 303 outlet;
#X obj 138 94 loadbang;
#X connect 0 0 3 0;
#X connect 1 0 2 0;
#X connect 2 0 0 0;
#X connect 3 0 4 0;
#X connect 3 1 4 0;
#X connect 4 0 8 0;
#X connect 5 0 1 0;
#X connect 6 0 5 0;
#X connect 7 0 6 0;
#X connect 9 0 1 0;
#X restore 504 637 pd on-off;
#X obj 504 671 tgl 15 0 on-off-ch8 empty empty 17 7 0 10 -262144 -1
-1 1 1;
#X obj 91 621 ctlin 33 1;
#X obj 161 621 ctlin 34 1;
#X obj 229 620 ctlin 35 1;
#X obj 297 620 ctlin 36 1;
#X obj 365 619 ctlin 37 1;
#X obj 435 619 ctlin 38 1;
#X obj 503 618 ctlin 39 1;
#N canvas 0 23 1004 686 on-off 0;
#X floatatom 63 190 5 0 0 0 - - -, f 5;
#X obj 47 110 bng 15 250 50 0 empty empty empty 17 7 0 10 -262144 -1
-1;
#X obj 51 150 counter 2;
#X obj 63 219 route 1 2;
#X obj 76 273 tgl 15 0 empty empty empty 17 7 0 10 -262144 -1 -1 1
1;
#X obj 45 75 route 127;
#X floatatom 70 45 5 0 0 0 - - -, f 5;
#X obj 68 13 inlet;
#X obj 80 303 outlet;
#X obj 138 94 loadbang;
#X connect 0 0 3 0;
#X connect 1 0 2 0;
#X connect 2 0 0 0;
#X connect 3 0 4 0;
#X connect 3 1 4 0;
#X connect 4 0 8 0;
#X connect 5 0 1 0;
#X connect 6 0 5 0;
#X connect 7 0 6 0;
#X connect 9 0 1 0;
#X restore 577 638 pd on-off;
#X obj 577 672 tgl 15 0 on-off-ch9 empty empty 17 7 0 10 -262144 -1
-1 1 1;
#N canvas 0 23 1004 686 on-off 0;
#X floatatom 63 190 5 0 0 0 - - -, f 5;
#X obj 47 110 bng 15 250 50 0 empty empty empty 17 7 0 10 -262144 -1
-1;
#X obj 51 150 counter 2;
#X obj 63 219 route 1 2;
#X obj 76 273 tgl 15 0 empty empty empty 17 7 0 10 -262144 -1 -1 1
1;
#X obj 45 75 route 127;
#X floatatom 70 45 5 0 0 0 - - -, f 5;
#X obj 68 13 inlet;
#X obj 80 303 outlet;
#X obj 138 94 loadbang;
#X connect 0 0 3 0;
#X connect 1 0 2 0;
#X connect 2 0 0 0;
#X connect 3 0 4 0;
#X connect 3 1 4 0;
#X connect 4 0 8 0;
#X connect 5 0 1 0;
#X connect 6 0 5 0;
#X connect 7 0 6 0;
#X connect 9 0 1 0;
#X restore 645 637 pd on-off;
#X obj 645 671 tgl 15 0 on-off-ch10 empty empty 17 7 0 10 -262144 -1
-1 1 1;
#N canvas 0 23 1004 686 on-off 0;
#X floatatom 63 190 5 0 0 0 - - -, f 5;
#X obj 47 110 bng 15 250 50 0 empty empty empty 17 7 0 10 -262144 -1
-1;
#X obj 51 150 counter 2;
#X obj 63 219 route 1 2;
#X obj 76 273 tgl 15 0 empty empty empty 17 7 0 10 -262144 -1 -1 1
1;
#X obj 45 75 route 127;
#X floatatom 70 45 5 0 0 0 - - -, f 5;
#X obj 68 13 inlet;
#X obj 80 303 outlet;
#X obj 138 94 loadbang;
#X connect 0 0 3 0;
#X connect 1 0 2 0;
#X connect 2 0 0 0;
#X connect 3 0 4 0;
#X connect 3 1 4 0;
#X connect 4 0 8 0;
#X connect 5 0 1 0;
#X connect 6 0 5 0;
#X connect 7 0 6 0;
#X connect 9 0 1 0;
#X restore 715 637 pd on-off;
#X obj 715 671 tgl 15 0 on-off-ch11 empty empty 17 7 0 10 -262144 -1
-1 1 1;
#N canvas 0 23 1004 686 on-off 0;
#X floatatom 63 190 5 0 0 0 - - -, f 5;
#X obj 47 110 bng 15 250 50 0 empty empty empty 17 7 0 10 -262144 -1
-1;
#X obj 51 150 counter 2;
#X obj 63 219 route 1 2;
#X obj 76 273 tgl 15 0 empty empty empty 17 7 0 10 -262144 -1 -1 1
1;
#X obj 45 75 route 127;
#X floatatom 70 45 5 0 0 0 - - -, f 5;
#X obj 68 13 inlet;
#X obj 80 303 outlet;
#X obj 138 94 loadbang;
#X connect 0 0 3 0;
#X connect 1 0 2 0;
#X connect 2 0 0 0;
#X connect 3 0 4 0;
#X connect 3 1 4 0;
#X connect 4 0 8 0;
#X connect 5 0 1 0;
#X connect 6 0 5 0;
#X connect 7 0 6 0;
#X connect 9 0 1 0;
#X restore 783 636 pd on-off;
#X obj 783 670 tgl 15 0 on-off-ch12 empty empty 17 7 0 10 -262144 -1
-1 1 1;
#N canvas 0 23 1004 686 on-off 0;
#X floatatom 63 190 5 0 0 0 - - -, f 5;
#X obj 47 110 bng 15 250 50 0 empty empty empty 17 7 0 10 -262144 -1
-1;
#X obj 51 150 counter 2;
#X obj 63 219 route 1 2;
#X obj 76 273 tgl 15 0 empty empty empty 17 7 0 10 -262144 -1 -1 1
1;
#X obj 45 75 route 127;
#X floatatom 70 45 5 0 0 0 - - -, f 5;
#X obj 68 13 inlet;
#X obj 80 303 outlet;
#X obj 138 94 loadbang;
#X connect 0 0 3 0;
#X connect 1 0 2 0;
#X connect 2 0 0 0;
#X connect 3 0 4 0;
#X connect 3 1 4 0;
#X connect 4 0 8 0;
#X connect 5 0 1 0;
#X connect 6 0 5 0;
#X connect 7 0 6 0;
#X connect 9 0 1 0;
#X restore 851 636 pd on-off;
#X obj 851 670 tgl 15 0 on-off-ch13 empty empty 17 7 0 10 -262144 -1
-1 1 1;
#N canvas 0 23 1004 686 on-off 0;
#X floatatom 63 190 5 0 0 0 - - -, f 5;
#X obj 47 110 bng 15 250 50 0 empty empty empty 17 7 0 10 -262144 -1
-1;
#X obj 51 150 counter 2;
#X obj 63 219 route 1 2;
#X obj 76 273 tgl 15 0 empty empty empty 17 7 0 10 -262144 -1 -1 1
1;
#X obj 45 75 route 127;
#X floatatom 70 45 5 0 0 0 - - -, f 5;
#X obj 68 13 inlet;
#X obj 80 303 outlet;
#X obj 138 94 loadbang;
#X connect 0 0 3 0;
#X connect 1 0 2 0;
#X connect 2 0 0 0;
#X connect 3 0 4 0;
#X connect 3 1 4 0;
#X connect 4 0 8 0;
#X connect 5 0 1 0;
#X connect 6 0 5 0;
#X connect 7 0 6 0;
#X connect 9 0 1 0;
#X restore 919 635 pd on-off;
#X obj 919 669 tgl 15 0 on-off-ch14 empty empty 17 7 0 10 -262144 -1
-1 1 1;
#N canvas 0 23 1004 686 on-off 0;
#X floatatom 63 190 5 0 0 0 - - -, f 5;
#X obj 47 110 bng 15 250 50 0 empty empty empty 17 7 0 10 -262144 -1
-1;
#X obj 51 150 counter 2;
#X obj 63 219 route 1 2;
#X obj 76 273 tgl 15 0 empty empty empty 17 7 0 10 -262144 -1 -1 1
1;
#X obj 45 75 route 127;
#X floatatom 70 45 5 0 0 0 - - -, f 5;
#X obj 68 13 inlet;
#X obj 80 303 outlet;
#X obj 138 94 loadbang;
#X connect 0 0 3 0;
#X connect 1 0 2 0;
#X connect 2 0 0 0;
#X connect 3 0 4 0;
#X connect 3 1 4 0;
#X connect 4 0 8 0;
#X connect 5 0 1 0;
#X connect 6 0 5 0;
#X connect 7 0 6 0;
#X connect 9 0 1 0;
#X restore 989 635 pd on-off;
#X obj 989 669 tgl 15 0 on-off-ch15 empty empty 17 7 0 10 -262144 -1
-1 1 1;
#N canvas 0 23 1004 686 on-off 0;
#X floatatom 63 190 5 0 0 0 - - -, f 5;
#X obj 47 110 bng 15 250 50 0 empty empty empty 17 7 0 10 -262144 -1
-1;
#X obj 51 150 counter 2;
#X obj 63 219 route 1 2;
#X obj 76 273 tgl 15 0 empty empty empty 17 7 0 10 -262144 -1 -1 1
1;
#X obj 45 75 route 127;
#X floatatom 70 45 5 0 0 0 - - -, f 5;
#X obj 68 13 inlet;
#X obj 80 303 outlet;
#X obj 138 94 loadbang;
#X connect 0 0 3 0;
#X connect 1 0 2 0;
#X connect 2 0 0 0;
#X connect 3 0 4 0;
#X connect 3 1 4 0;
#X connect 4 0 8 0;
#X connect 5 0 1 0;
#X connect 6 0 5 0;
#X connect 7 0 6 0;
#X connect 9 0 1 0;
#X restore 1057 634 pd on-off;
#X obj 1057 668 tgl 15 0 on-off-ch16 empty empty 17 7 0 10 -262144
-1 -1 1 1;
#X obj 576 619 ctlin 32 17;
#X obj 644 618 ctlin 33 17;
#X obj 714 618 ctlin 34 17;
#X obj 782 617 ctlin 35 17;
#X obj 850 617 ctlin 36 17;
#X obj 918 616 ctlin 37 17;
#X obj 988 616 ctlin 38 17;
#X obj 1056 615 ctlin 39 17;
#X obj 25 526 / 127;
#X obj 91 525 / 127;
#X obj 160 528 / 127;
#X obj 226 527 / 127;
#X obj 294 527 / 127;
#X obj 360 526 / 127;
#X obj 429 529 / 127;
#X obj 495 528 / 127;
#X obj 576 528 / 127;
#X obj 642 527 / 127;
#X obj 711 530 / 127;
#X obj 777 529 / 127;
#X obj 845 529 / 127;
#X obj 911 528 / 127;
#X obj 980 531 / 127;
#X obj 1046 530 / 127;
#X obj 16 563 s vol-ch1;
#X obj 87 563 s vol-ch2;
#X obj 160 564 s vol-ch3;
#X obj 231 564 s vol-ch4;
#X obj 296 565 s vol-ch5;
#X obj 367 565 s vol-ch6;
#X obj 440 566 s vol-ch7;
#X obj 511 566 s vol-ch8;
#X obj 576 564 s vol-ch9;
#X obj 647 564 s vol-ch10;
#X obj 720 565 s vol-ch11;
#X obj 791 565 s vol-ch12;
#X obj 856 566 s vol-ch13;
#X obj 927 566 s vol-ch14;
#X obj 1000 567 s vol-ch15;
#X obj 1071 567 s vol-ch16;
#X obj 474 423 loadbang;
#X msg 474 442 64;
#X obj 23 137 scale 0 127 360 140;
#X floatatom 24 201 5 0 0 0 - - pan-ch1, f 5;
#X obj 90 159 scale 0 127 360 140;
#X floatatom 90 201 5 0 0 0 - - pan-ch2, f 5;
#X obj 157 138 scale 0 127 360 140;
#X floatatom 157 199 5 0 0 0 - - pan-ch3, f 5;
#X obj 224 160 scale 0 127 360 140;
#X floatatom 224 201 5 0 0 0 - - pan-ch4, f 5;
#X obj 292 132 scale 0 127 360 140;
#X floatatom 293 196 5 0 0 0 - - pan-ch5, f 5;
#X obj 359 154 scale 0 127 360 140;
#X floatatom 359 189 5 0 0 0 - - pan-ch6, f 5;
#X obj 426 133 scale 0 127 360 140;
#X floatatom 426 191 5 0 0 0 - - pan-ch7, f 5;
#X obj 493 155 scale 0 127 360 140;
#X floatatom 493 190 5 0 0 0 - - pan-ch8, f 5;
#X obj 576 134 scale 0 127 360 140;
#X obj 643 156 scale 0 127 360 140;
#X floatatom 643 191 5 0 0 0 - - pan-ch10, f 5;
#X obj 710 135 scale 0 127 360 140;
#X floatatom 710 193 5 0 0 0 - - pan-ch11, f 5;
#X obj 777 157 scale 0 127 360 140;
#X floatatom 777 192 5 0 0 0 - - pan-ch12, f 5;
#X floatatom 576 192 5 0 0 0 - - pan-ch9, f 5;
#X obj 845 135 scale 0 127 360 140;
#X floatatom 846 199 5 0 0 0 - - pan-ch13, f 5;
#X obj 912 157 scale 0 127 360 140;
#X floatatom 912 199 5 0 0 0 - - pan-ch14, f 5;
#X obj 979 136 scale 0 127 360 140;
#X floatatom 979 197 5 0 0 0 - - pan-ch15, f 5;
#X obj 1046 158 scale 0 127 360 140;
#X floatatom 1047 196 5 0 0 0 - - pan-ch16, f 5;
#X obj 470 9 loadbang;
#X msg 470 31 0;
#X connect 0 0 153 0;
#X connect 1 0 2 0;
#X connect 1 1 3 0;
#X connect 1 2 4 0;
#X connect 5 0 0 0;
#X connect 6 0 155 0;
#X connect 7 0 6 0;
#X connect 8 0 157 0;
#X connect 9 0 159 0;
#X connect 10 0 8 0;
#X connect 11 0 9 0;
#X connect 12 0 161 0;
#X connect 13 0 163 0;
#X connect 14 0 165 0;
#X connect 15 0 167 0;
#X connect 16 0 12 0;
#X connect 17 0 13 0;
#X connect 18 0 14 0;
#X connect 19 0 15 0;
#X connect 20 0 169 0;
#X connect 21 0 170 0;
#X connect 22 0 172 0;
#X connect 23 0 174 0;
#X connect 24 0 177 0;
#X connect 25 0 179 0;
#X connect 26 0 181 0;
#X connect 27 0 183 0;
#X connect 28 0 20 0;
#X connect 29 0 21 0;
#X connect 30 0 22 0;
#X connect 31 0 23 0;
#X connect 32 0 24 0;
#X connect 33 0 25 0;
#X connect 34 0 26 0;
#X connect 35 0 27 0;
#X connect 37 0 119 0;
#X connect 38 0 120 0;
#X connect 39 0 121 0;
#X connect 40 0 122 0;
#X connect 41 0 123 0;
#X connect 42 0 124 0;
#X connect 43 0 125 0;
#X connect 44 0 126 0;
#X connect 45 0 127 0;
#X connect 46 0 128 0;
#X connect 47 0 129 0;
#X connect 48 0 130 0;
#X connect 49 0 131 0;
#X connect 50 0 132 0;
#X connect 51 0 133 0;
#X connect 52 0 134 0;
#X connect 54 0 37 0;
#X connect 55 0 38 0;
#X connect 56 0 39 0;
#X connect 57 0 40 0;
#X connect 58 0 41 0;
#X connect 59 0 42 0;
#X connect 60 0 43 0;
#X connect 61 0 44 0;
#X connect 62 0 45 0;
#X connect 63 0 46 0;
#X connect 64 0 47 0;
#X connect 65 0 48 0;
#X connect 66 0 49 0;
#X connect 67 0 50 0;
#X connect 68 0 51 0;
#X connect 69 0 52 0;
#X connect 70 0 71 0;
#X connect 71 0 72 0;
#X connect 74 0 75 0;
#X connect 76 0 77 0;
#X connect 78 0 79 0;
#X connect 80 0 81 0;
#X connect 82 0 83 0;
#X connect 84 0 85 0;
#X connect 86 0 87 0;
#X connect 88 0 74 0;
#X connect 89 0 76 0;
#X connect 90 0 78 0;
#X connect 91 0 80 0;
#X connect 92 0 82 0;
#X connect 93 0 84 0;
#X connect 94 0 86 0;
#X connect 95 0 96 0;
#X connect 97 0 98 0;
#X connect 99 0 100 0;
#X connect 101 0 102 0;
#X connect 103 0 104 0;
#X connect 105 0 106 0;
#X connect 107 0 108 0;
#X connect 109 0 110 0;
#X connect 111 0 95 0;
#X connect 112 0 97 0;
#X connect 113 0 99 0;
#X connect 114 0 101 0;
#X connect 115 0 103 0;
#X connect 116 0 105 0;
#X connect 117 0 107 0;
#X connect 118 0 109 0;
#X connect 119 0 135 0;
#X connect 120 0 136 0;
#X connect 121 0 137 0;
#X connect 122 0 138 0;
#X connect 123 0 139 0;
#X connect 124 0 140 0;
#X connect 125 0 141 0;
#X connect 126 0 142 0;
#X connect 127 0 143 0;
#X connect 128 0 144 0;
#X connect 129 0 145 0;
#X connect 130 0 146 0;
#X connect 131 0 147 0;
#X connect 132 0 148 0;
#X connect 133 0 149 0;
#X connect 134 0 150 0;
#X connect 151 0 152 0;
#X connect 152 0 37 0;
#X connect 152 0 38 0;
#X connect 152 0 39 0;
#X connect 152 0 40 0;
#X connect 152 0 41 0;
#X connect 152 0 42 0;
#X connect 152 0 43 0;
#X connect 152 0 44 0;
#X connect 152 0 45 0;
#X connect 152 0 46 0;
#X connect 152 0 47 0;
#X connect 152 0 48 0;
#X connect 152 0 49 0;
#X connect 152 0 50 0;
#X connect 152 0 51 0;
#X connect 152 0 52 0;
#X connect 153 0 154 0;
#X connect 155 0 156 0;
#X connect 157 0 158 0;
#X connect 159 0 160 0;
#X connect 161 0 162 0;
#X connect 163 0 164 0;
#X connect 165 0 166 0;
#X connect 167 0 168 0;
#X connect 169 0 176 0;
#X connect 170 0 171 0;
#X connect 172 0 173 0;
#X connect 174 0 175 0;
#X connect 177 0 178 0;
#X connect 179 0 180 0;
#X connect 181 0 182 0;
#X connect 183 0 184 0;
#X connect 185 0 186 0;
#X connect 186 0 0 0;
#X connect 186 0 6 0;
#X connect 186 0 8 0;
#X connect 186 0 9 0;
#X connect 186 0 12 0;
#X connect 186 0 13 0;
#X connect 186 0 14 0;
#X connect 186 0 15 0;
#X connect 186 0 20 0;
#X connect 186 0 21 0;
#X connect 186 0 22 0;
#X connect 186 0 23 0;
#X connect 186 0 24 0;
#X connect 186 0 25 0;
#X connect 186 0 26 0;
#X connect 186 0 27 0;
#X restore 838 26 pd MIDI;
