#N canvas 0 22 1181 751 10;
#X obj 327 799 *~;
#X obj 224 151 vsl 15 60 0 0.8 0 0 empty empty Feedback 0 -9 0 10 -262144
-1 -1 5900 1;
#X text 605 310 Flanger;
#X obj 287 549 osc~;
#X floatatom 287 513 5 0 0 0 - - -, f 5;
#X obj 328 679 *~;
#X obj 287 583 +~ 1;
#X obj 287 615 /~ 2;
#X obj 169 151 vsl 15 60 0 100 0 0 empty empty Depth 0 -9 0 10 -262144
-1 -1 885 1;
#N canvas 170 520 450 300 IO 0;
#X obj 154 79 inlet~;
#X obj 155 155 outlet~;
#X connect 0 0 1 0;
#X restore 141 863 pd IO;
#X text 458 743 Delay Variable;
#X text 309 371 Recibo Realimentación;
#X text 324 875 Envío Realimentación;
#X text 137 388 Reproductor;
#X text 669 311 Efecto de sonido que produce un sonido metalizado oscilante
\, sobre todo en frecuencias medias y altas.;
#X msg 207 490 0.05;
#X obj 182 453 loadbang;
#X text 473 659 Profundidad Delay;
#X obj 176 799 *~;
#X obj 112 151 vsl 15 60 0 1 0 0 empty empty Dry/Wet 0 -9 0 10 -262144
-1 -1 5900 1;
#X obj 139 413 inlet~;
#X text 105 103 FLANGER;
#X obj 443 97 ctlin;
#X floatatom 444 139 5 0 0 0 - - -, f 5;
#X floatatom 514 139 5 0 0 0 - - -, f 5;
#X obj 312 396 r~ \$0-feedback;
#X obj 326 850 s~ \$0-feedback;
#X obj 742 760 line~;
#X obj 646 733 *~;
#X obj 782 705 route 1;
#X msg 788 729 1 200;
#X msg 829 730 0 200;
#X obj 252 164 tgl 30 0 empty empty empty 17 7 0 10 -258113 -1 -1 1
1;
#X obj 624 757 throw~ FLANGER;
#X obj 528 532 line~;
#X msg 515 497 \$1 100;
#X obj 76 352 line~;
#X msg 63 317 \$1 100;
#X obj 182 334 line~;
#X msg 169 299 \$1 100;
#X obj 313 439 delwrite~ \$0-buffer 3000;
#X obj 327 743 vd~ \$0-buffer;
#X obj 343 91 loadbang;
#X msg 350 119 1;
#X msg 322 114 1;
#X msg 366 143 15;
#X msg 350 183 0.9;
#X connect 0 0 18 0;
#X connect 0 0 26 0;
#X connect 1 0 39 0;
#X connect 3 0 6 0;
#X connect 4 0 3 0;
#X connect 5 0 41 0;
#X connect 6 0 7 0;
#X connect 7 0 5 0;
#X connect 8 0 35 0;
#X connect 9 0 28 0;
#X connect 15 0 4 0;
#X connect 16 0 15 0;
#X connect 18 0 9 0;
#X connect 19 0 37 0;
#X connect 20 0 9 0;
#X connect 20 0 40 0;
#X connect 22 0 23 0;
#X connect 22 1 24 0;
#X connect 25 0 40 0;
#X connect 27 0 28 1;
#X connect 28 0 33 0;
#X connect 29 0 30 0;
#X connect 29 1 31 0;
#X connect 30 0 27 0;
#X connect 31 0 27 0;
#X connect 32 0 29 0;
#X connect 34 0 5 1;
#X connect 35 0 34 0;
#X connect 36 0 18 1;
#X connect 37 0 36 0;
#X connect 38 0 0 1;
#X connect 39 0 38 0;
#X connect 41 0 0 0;
#X connect 42 0 43 0;
#X connect 42 0 44 0;
#X connect 42 0 45 0;
#X connect 42 0 46 0;
#X connect 43 0 32 0;
#X connect 44 0 19 0;
#X connect 45 0 8 0;
#X connect 46 0 1 0;
#X coords 0 -1 1 1 200 120 2 100 100;
