#N canvas 0 22 1280 751 10;
#X floatatom 114 596 10 1 10000 0 - - -, f 10;
#X floatatom 112 715 10 20 20000 0 - - -, f 10;
#X floatatom 503 714 5 0 100 0 - - -, f 5;
#X msg 114 614 time \$1;
#X msg 503 735 resonance \$1;
#X floatatom 314 596 5 0 100 0 - - -, f 5;
#X msg 785 138 just;
#X msg 837 138 12tet;
#X floatatom 111 832 5 0 200 0 - - -, f 5;
#X floatatom 502 831 5 0 100 0 - - -, f 5;
#X floatatom 311 832 5 0 50 0 - - -, f 5;
#X msg 111 850 density \$1;
#X floatatom 511 937 5 0 100 0 - - -, f 5;
#X msg 113 956 octave \$1;
#X msg 314 616 timeVariation \$1;
#X msg 311 852 grainSize \$1;
#X msg 502 852 grainStartVariation \$1;
#X msg 511 958 grainReversal \$1;
#X msg 313 958 octaveVariation \$1;
#X obj 109 135 hsl 128 15 1 10000 1 0 empty \$0-bub_inittime empty
-2 -8 0 10 -228856 -1 -1 9272 1;
#X text 25 -3 +bubbler~;
#X floatatom 312 716 5 0 200 0 - - -, f 5;
#X obj 258 175 hsl 128 15 0 200 0 0 empty \$0-bub_initfb empty -2 -8
0 10 -228856 -1 -1 0 1;
#X obj 257 135 hsl 128 15 -100 200 0 0 empty \$0-bub_inittimevar empty
-2 -8 0 10 -228856 -1 -1 6350 1;
#X obj 110 174 hsl 128 15 20 20000 1 0 empty \$0-bub_initfilterFreq
empty -2 -8 0 10 -228856 -1 -1 12700 1;
#X obj 111 212 hsl 128 15 1 100 0 0 empty \$0-bub_initres empty -2
-8 0 10 -228856 -1 -1 6286 1;
#X obj 111 250 hsl 128 15 0 50 0 0 empty \$0-bub_initgrainsize empty
-2 -8 0 10 -228856 -1 -1 2540 1;
#X obj 258 212 hsl 128 15 0 200 0 0 empty \$0-bub_initdensity empty
-2 -8 0 10 -228856 -1 -1 5080 1;
#X obj 258 249 hsl 128 15 0 100 0 0 empty \$0-bub_initgvar empty -2
-8 0 10 -228856 -1 -1 0 1;
#X obj 258 466 hsl 128 15 0 100 0 0 empty \$0-bub_initgrev empty -2
-8 0 10 -228856 -1 -1 0 1;
#X msg 112 733 filterFreq \$1;
#X msg 312 735 feedback \$1;
#X obj 686 138 notein;
#X obj 111 370 hsl 128 15 0 2 0 0 \$0-bub_delvol \$0-bub_initdelvol
empty -2 -8 0 10 -228856 -1 -1 12700 1;
#X obj 111 310 hsl 128 15 0 2 0 0 \$0-bub_dryvol \$0-bub_initdryvol
empty -2 -8 0 10 -228856 -1 -1 0 1;
#X text 106 346 Delay Volume (dB);
#X text 106 293 Dry Volume (dB);
#X obj 686 171 pack f f;
#X obj 106 410 hradio 15 1 0 9 empty \$0-bub_initoct Octave 0 -8 0
10 -262144 -1 -1 4;
#X obj 113 934 - 4;
#N canvas 215 84 696 653 init 0;
#X msg 399 160 20000;
#X msg 85 356 0;
#X msg 462 130 832.6;
#X msg 509 61 50;
#X msg 249 264 80;
#X msg 302 231 10;
#X msg 355 197 1;
#X msg 146 326 100;
#X msg 31 553 \; pd dsp 1 \;;
#X obj 31 -8 loadbang;
#X obj 31 15 t b b b b b b b b b b;
#X msg 189 291 0;
#X msg 566 19 4;
#X obj 566 42 s \$0-bub_initoct;
#X obj 529 88 s \$0-bub_initres;
#X obj 529 112 s \$0-bub_inittimevar;
#X obj 462 153 s \$0-bub_inittime;
#X obj 400 183 s \$0-bub_initfilterFreq;
#X obj 355 222 s \$0-bub_but0;
#X obj 302 256 s \$0-bub_initgrainsize;
#X obj 249 289 s \$0-bub_initdensity;
#X obj 189 318 s \$0-bub_initdryvol;
#X obj 146 353 s \$0-bub_initdelvol;
#X obj 115 417 s \$0-bub_initgrev;
#X obj 115 440 s \$0-bub_initgvar;
#X obj 115 463 s \$0-bub_initoctave;
#X obj 115 486 s \$0-bub_initoctvari;
#X obj 115 509 s \$0-bub_initfb;
#X connect 0 0 17 0;
#X connect 1 0 23 0;
#X connect 1 0 24 0;
#X connect 1 0 25 0;
#X connect 1 0 26 0;
#X connect 1 0 27 0;
#X connect 2 0 16 0;
#X connect 3 0 14 0;
#X connect 3 0 15 0;
#X connect 4 0 20 0;
#X connect 5 0 19 0;
#X connect 6 0 18 0;
#X connect 7 0 22 0;
#X connect 9 0 10 0;
#X connect 10 0 8 0;
#X connect 10 1 1 0;
#X connect 10 2 7 0;
#X connect 10 2 11 0;
#X connect 10 3 4 0;
#X connect 10 4 5 0;
#X connect 10 5 6 0;
#X connect 10 6 0 0;
#X connect 10 7 2 0;
#X connect 10 8 3 0;
#X connect 10 9 12 0;
#X connect 11 0 21 0;
#X connect 12 0 13 0;
#X restore 763 48 pd init;
#N canvas 79 22 1035 558 bubbler 0;
#X text 19 160 time \, feedback \, filter freq \, resonance- these
are identical in function to the same parameters in "+delay~". The
only exception is that the range of time is from 20 milliseconds to
10 seconds.;
#X text 17 233 time variation - this will select a random delay time
for each grain from time - (time vari * time) to time + (time vari
* time). This control has a range from 0% to 100%.;
#X text 15 294 density - this controls the number of grains present
at any given moment. It varies from 0% to 200%. At 100% \, grains are
created at a rate so that two grains are present (on average). This
is done because each grain is enveloped \, and it is necessary to overlap
grains for smooth audio.;
#X text 17 391 grain size - this is the size of each grain as a percentage
of the delay time. This control varies from 0% to 50%.;
#X text 521 27 g start vari - this control varies from 0% to 100%.
At 0% grains will be created at a fixed frequency (grain rate) dependent
on the grain size and density \, for synchronous granular synthesis.
When the g start vari is increased \, the grain start time will deviate
from this fixed frequency.;
#X text 519 280 grain reversal - this will randomly reverse the grain.
At 0% \, none of the grains will be reversed \, at 100% \, all of the
grains will be reversed. This is especially effective when the grain
size and delay time is large.;
#X text 522 230 octave variation - this will add a random octave pitch
shift to each grain.;
#X text 20 31 This is a granular delay. That is \, small or large bits
of sound (grains) are read from the delay \, and are recombined before
sending to the output and feedback. The grains of sound are given smooth
envelopes \, so that they can be recombined without transient distortion.
The start of the grain \, the delay in each grain \, the playback direction
and the pitch of each grain can be randomized.;
#X text 16 437 Dry/Delay volume-controls the volume of the original
signal (dry) or the delayed signal (delay);
#X text 16 480 Mix-controls the ratio of dry-delay in the output. Ranges
from 0 to 100% (0% all dry \, 100% all delay). Adjust mix \, then adjust
volumes as desired.;
#X text 17 5 +bubbler~;
#X text 522 127 pitch shift/octave - these controls give each grain
a pitch shift. Pitch shifting is controlled via MIDI input to the right
inlet \, given as a note/velocity pair. When multiple MIDI notes are
held \, the pitch shift values are randomly selected from the collection
for each grain. The octave value is added to the pitch shift.;
#X text 520 362 12tet/just - this button sets the pitch shifting to
12 tone equal temperament \, or to just intonation.;
#X restore 675 25 pd bubbler details;
#X obj 628 229 +bubbler~;
#X floatatom 257 314 5 0 100 0 - #0-bub_dryvol -, f 5;
#X floatatom 257 367 5 0 100 0 - #0-bub_delvol -, f 5;
#X obj 115 467 hradio 15 1 0 3 empty empty OctaveVariation 0 -8 0 10
-262144 -1 -1 2;
#X obj 22 24 cnv 15 500 60 empty empty empty 20 12 0 14 -228856 -66577
0;
#X text 27 23 This is a delay using granular synthesis. Small clips
(grains) of audio are read and re-ordered before being sent to the
delay output. Various parameters such as playback direction and pitch
of each grain can be controlled.;
#X obj 567 66 inlet~;
#X text 105 116 Time 1 - 10000 ms (log);
#X text 252 115 Time Variation 0 - 100%;
#X text 103 157 Filter 20 - 20kHz (log);
#X text 254 157 feedback 0 - 200%;
#X text 107 194 Resonance 0 - 100%;
#X text 254 194 Density 0 - 200%;
#X text 109 231 Grain Size 0 - 50%;
#X text 256 229 Start 0 - 100%;
#X text 255 446 Reversal 0 - 100%;
#X obj 322 324 tgl 40 0 empty empty empty 17 7 0 10 -261682 -1 -1 1
1;
#X obj 642 396 line~;
#X obj 578 404 *~;
#X msg 688 365 1 200;
#X obj 682 341 route 1;
#X obj 577 428 throw~ GRAIN;
#X msg 729 366 0 200;
#X text 105 101 BUBBLER;
#X msg 445 404 just;
#X msg 497 404 12tet;
#X obj 445 437 s bub;
#X obj 550 251 line~;
#X obj 523 286 *~;
#X msg 482 225 \$1 100;
#X obj 443 279 line~;
#X obj 455 313 *~;
#X msg 414 252 \$1 100;
#X obj 109 431 hsl 128 15 0 8 0 0 empty empty empty -2 -8 0 10 -262144
-1 -1 6350 1;
#X obj 430 129 loadbang;
#X msg 440 170 1;
#X obj 114 634 s \$0-bub;
#X obj 112 753 s \$0-bub;
#X obj 111 870 s \$0-bub;
#X obj 113 976 s \$0-bub;
#X obj 785 171 s \$0-bub;
#X obj 643 170 r \$0-bub;
#X msg 411 167 0.7;
#X connect 0 0 3 0;
#X connect 1 0 30 0;
#X connect 2 0 4 0;
#X connect 3 0 78 0;
#X connect 4 0 79 0;
#X connect 5 0 14 0;
#X connect 6 0 82 0;
#X connect 7 0 82 0;
#X connect 8 0 11 0;
#X connect 9 0 16 0;
#X connect 10 0 15 0;
#X connect 11 0 80 0;
#X connect 12 0 17 0;
#X connect 13 0 81 0;
#X connect 14 0 78 0;
#X connect 15 0 80 0;
#X connect 16 0 80 0;
#X connect 17 0 81 0;
#X connect 18 0 81 0;
#X connect 19 0 0 0;
#X connect 21 0 31 0;
#X connect 22 0 21 0;
#X connect 23 0 5 0;
#X connect 24 0 1 0;
#X connect 25 0 2 0;
#X connect 26 0 10 0;
#X connect 27 0 8 0;
#X connect 28 0 9 0;
#X connect 29 0 12 0;
#X connect 30 0 79 0;
#X connect 31 0 79 0;
#X connect 32 0 37 0;
#X connect 32 1 37 1;
#X connect 33 0 74 0;
#X connect 34 0 71 0;
#X connect 37 0 42 1;
#X connect 38 0 39 0;
#X connect 38 0 75 0;
#X connect 39 0 13 0;
#X connect 42 0 73 0;
#X connect 45 0 18 0;
#X connect 48 0 42 0;
#X connect 48 0 70 0;
#X connect 58 0 62 0;
#X connect 59 0 60 1;
#X connect 60 0 63 0;
#X connect 61 0 59 0;
#X connect 62 0 61 0;
#X connect 62 1 64 0;
#X connect 64 0 59 0;
#X connect 66 0 68 0;
#X connect 67 0 68 0;
#X connect 69 0 70 1;
#X connect 70 0 60 0;
#X connect 71 0 69 0;
#X connect 72 0 73 1;
#X connect 73 0 60 0;
#X connect 74 0 72 0;
#X connect 75 0 39 0;
#X connect 76 0 77 0;
#X connect 76 0 84 0;
#X connect 77 0 58 0;
#X connect 83 0 42 0;
#X connect 84 0 33 0;
#X coords 0 -1 1 1 300 400 2 100 100;
