#N canvas 4 23 1261 643 10;
#X obj 107 122 tgl 15 0 empty empty P_Delay 0 -10 0 10 -4034 -1 -33289
0 1;
#X obj 102 240 *~;
#X obj 147 240 *~;
#X obj 117 205 line~;
#X msg 117 183 \$1 200;
#X obj 162 122 tgl 15 0 empty empty Flanger 0 -10 0 10 -260097 -1 -1
0 1;
#X obj 162 205 line~;
#X msg 162 183 \$1 200;
#X obj 217 122 tgl 15 0 empty empty Phaser 0 -10 0 10 -4034 -1 -1 0
1;
#X obj 192 240 *~;
#X obj 237 240 *~;
#X obj 207 205 line~;
#X msg 207 183 \$1 200;
#X obj 272 122 tgl 15 0 empty empty Multitap 0 -10 0 10 -260097 -1
-1 0 1;
#X obj 252 205 line~;
#X msg 252 183 \$1 200;
#X obj 327 122 tgl 15 0 empty empty Grain 0 -10 0 10 -4034 -1 -1 0
1;
#X obj 282 240 *~;
#X obj 327 240 *~;
#X obj 297 205 line~;
#X msg 297 183 \$1 200;
#X obj 348 161 tgl 15 0 empty empty empty 17 7 0 10 -260097 -1 -1 0
1;
#X obj 342 205 line~;
#X msg 342 183 \$1 200;
#X obj 372 121 tgl 15 0 empty empty EQ 0 -10 0 10 -4034 -1 -1 0 1;
#X obj 372 240 *~;
#X obj 417 240 *~;
#X obj 387 205 line~;
#X msg 387 183 \$1 200;
#X obj 455 161 tgl 15 0 empty empty empty 17 7 0 10 -260097 -1 -1 0
1;
#X obj 432 205 line~;
#X msg 432 183 \$1 200;
#X obj 60 213 inlet~;
#N canvas 165 72 213 343 pitchdelay-\$0 0;
#X obj 5 25 PITCH-DELAY;
#X obj 3 5 inlet~;
#X connect 1 0 0 0;
#X restore 14 264 pd pitchdelay-\$0;
#X msg 523 204 \; pd-pitchdelay-\$1 vis 1;
#X obj 124 122 bng 15 250 50 0 empty empty empty 17 7 0 10 -262144
-1 -1;
#X obj 514 160 \$0;
#X obj 528 258 print;
#X obj 666 160 \$0;
#X obj 680 258 print;
#X obj 811 160 \$0;
#X obj 825 258 print;
#X obj 956 159 \$0;
#X obj 970 257 print;
#X obj 1099 159 \$0;
#X obj 1113 257 print;
#N canvas 209 153 222 156 flanger-\$0 0;
#X obj 6 25 Flanger;
#X obj 6 5 inlet~;
#X connect 1 0 0 0;
#X restore 104 296 pd flanger-\$0;
#X msg 675 204 \; pd-flanger-\$1 vis 1;
#X obj 179 122 bng 15 250 50 0 empty empty empty 17 7 0 10 -262144
-1 -1;
#X obj 234 122 bng 15 250 50 0 empty empty empty 17 7 0 10 -262144
-1 -1;
#X obj 289 122 bng 15 250 50 0 empty empty empty 17 7 0 10 -262144
-1 -1;
#X obj 344 122 bng 15 250 50 0 empty empty empty 17 7 0 10 -262144
-1 -1;
#N canvas 0 22 184 184 phaser-\$0 0;
#X obj 8 23 Phaser;
#X obj 8 1 inlet~;
#X connect 1 0 0 0;
#X restore 189 321 pd phaser-\$0;
#N canvas 245 139 223 202 multitap-\$0 0;
#X obj 6 33 multitap;
#X obj 6 9 inlet~;
#X connect 1 0 0 0;
#X restore 282 343 pd multitap-\$0;
#N canvas 0 22 339 453 grain-\$0 0;
#X obj 11 24 Granulador;
#X obj 12 4 inlet~;
#X connect 1 0 0 0;
#X restore 311 310 pd grain-\$0;
#X msg 820 204 \; pd-phaser-\$1 vis 1;
#X msg 965 203 \; pd-multitap-\$1 vis 1;
#X msg 1108 203 \; pd-grain-\$1 vis 1;
#N canvas 452 386 715 343 EQ-\$0 0;
#X obj 7 23 gui.eq7.mmb~;
#X obj 7 5 inlet~;
#X obj 7 222 throw~ EQ;
#X connect 0 0 2 0;
#X connect 1 0 0 0;
#X restore 478 391 pd EQ-\$0;
#X obj 615 313 \$0;
#X obj 629 411 print;
#X msg 624 357 \; pd-EQ-\$1 vis 1;
#X obj 390 121 bng 15 250 50 0 empty empty empty 17 7 0 10 -262144
-1 -1;
#X connect 0 0 4 0;
#X connect 1 0 33 0;
#X connect 2 0 46 0;
#X connect 3 0 1 1;
#X connect 4 0 3 0;
#X connect 5 0 7 0;
#X connect 6 0 2 1;
#X connect 7 0 6 0;
#X connect 8 0 12 0;
#X connect 9 0 52 0;
#X connect 10 0 53 0;
#X connect 11 0 9 1;
#X connect 12 0 11 0;
#X connect 13 0 15 0;
#X connect 14 0 10 1;
#X connect 15 0 14 0;
#X connect 16 0 20 0;
#X connect 17 0 54 0;
#X connect 18 0 58 0;
#X connect 19 0 17 1;
#X connect 20 0 19 0;
#X connect 21 0 23 0;
#X connect 22 0 18 1;
#X connect 23 0 22 0;
#X connect 24 0 28 0;
#X connect 27 0 25 1;
#X connect 28 0 27 0;
#X connect 29 0 31 0;
#X connect 30 0 26 1;
#X connect 31 0 30 0;
#X connect 32 0 1 0;
#X connect 32 0 2 0;
#X connect 32 0 9 0;
#X connect 32 0 10 0;
#X connect 32 0 17 0;
#X connect 32 0 18 0;
#X connect 32 0 25 0;
#X connect 32 0 26 0;
#X connect 34 0 37 0;
#X connect 35 0 36 0;
#X connect 36 0 34 0;
#X connect 38 0 47 0;
#X connect 40 0 55 0;
#X connect 42 0 56 0;
#X connect 44 0 57 0;
#X connect 47 0 39 0;
#X connect 48 0 38 0;
#X connect 49 0 40 0;
#X connect 50 0 42 0;
#X connect 51 0 44 0;
#X connect 55 0 41 0;
#X connect 56 0 43 0;
#X connect 57 0 45 0;
#X connect 59 0 61 0;
#X connect 61 0 60 0;
#X connect 62 0 59 0;
#X coords 0 -1 1 1 310 40 2 100 100;
