#N canvas 294 27 1219 751 10;
#N canvas 0 22 889 450 pulso 0;
#X obj 434 50 inlet;
#X obj 262 256 *~;
#X obj 262 364 outlet~;
#X obj 434 165 vline~;
#X obj 132 83 osc~ 440;
#X msg 434 90 1 10 \, 0.3 20 10 \, 0 200 20;
#X connect 0 0 5 0;
#X connect 1 0 2 0;
#X connect 3 0 1 1;
#X connect 4 0 1 0;
#X connect 5 0 3 0;
#X restore 181 307 pd pulso;
#X obj 181 264 bng 35 250 50 0 empty empty empty 17 7 0 10 -262144
-1 -1;
#N canvas 0 22 450 300 io 0;
#X obj 194 74 inlet~;
#X obj 190 167 outlet~;
#X connect 0 0 1 0;
#X restore 181 724 pd io;
#X obj 201 640 *~;
#X obj 108 158 hsl 100 25 0 0.25 0 0 empty empty Feedback -2 -15 0
15 -262144 -1 -1 0 1;
#X floatatom 441 653 5 0 0 0 - - -, f 5;
#X text 748 608 Feedbback;
#N canvas 478 272 830 480 time 0;
#X obj 106 101 hsl 250 25 0 1000 0 0 empty empty empty -2 -8 0 10 -262144
-1 -1 14492 0;
#X obj 62 191 line~;
#X msg 62 154 \$1 20;
#X obj 62 230 outlet~;
#X obj 102 -112 random 1001;
#X obj 102 33 line;
#X obj 102 -18 pack 0 0;
#X obj 102 -154 r \$0-randomdelay;
#X obj 211 -71 inlet;
#X connect 1 0 3 0;
#X connect 2 0 1 0;
#X connect 4 0 6 0;
#X connect 5 0 0 0;
#X connect 6 0 5 0;
#X connect 6 0 1 0;
#X connect 7 0 4 0;
#X connect 8 0 6 1;
#X coords 0 -1 1 1 260 28 1 100 100;
#X restore 675 357 pd time;
#X text 669 323 0_________________1000 ms;
#X text 497 51 Multitap Delay;
#X obj 106 203 bng 40 250 50 0 empty empty empty 17 7 0 10 -262144
-1 -1;
#X text 113 11 Nuevos Delays;
#N canvas 0 22 830 480 time 0;
#X obj 106 101 hsl 250 25 0 1000 0 0 empty empty empty -2 -8 0 10 -262144
-1 -1 4034 0;
#X obj 62 191 line~;
#X msg 62 154 \$1 20;
#X obj 62 230 outlet~;
#X obj 102 -112 random 1001;
#X obj 102 33 line;
#X obj 102 -18 pack 0 0;
#X obj 102 -154 r \$0-randomdelay;
#X obj 211 -71 inlet;
#X connect 1 0 3 0;
#X connect 2 0 1 0;
#X connect 4 0 6 0;
#X connect 5 0 0 0;
#X connect 6 0 5 0;
#X connect 6 0 1 0;
#X connect 7 0 4 0;
#X connect 8 0 6 1;
#X coords 0 -1 1 1 260 28 1 100 100;
#X restore 675 391 pd time;
#N canvas 0 22 830 480 time 0;
#X obj 106 101 hsl 250 25 0 1000 0 0 empty empty empty -2 -8 0 10 -262144
-1 -1 17032 0;
#X obj 62 191 line~;
#X msg 62 154 \$1 20;
#X obj 62 230 outlet~;
#X obj 102 -112 random 1001;
#X obj 102 33 line;
#X obj 102 -18 pack 0 0;
#X obj 102 -154 r \$0-randomdelay;
#X obj 211 -71 inlet;
#X connect 1 0 3 0;
#X connect 2 0 1 0;
#X connect 4 0 6 0;
#X connect 5 0 0 0;
#X connect 6 0 5 0;
#X connect 6 0 1 0;
#X connect 7 0 4 0;
#X connect 8 0 6 1;
#X coords 0 -1 1 1 260 28 1 100 100;
#X restore 675 425 pd time;
#N canvas 0 22 830 480 time 0;
#X obj 106 101 hsl 250 25 0 1000 0 0 empty empty empty -2 -8 0 10 -262144
-1 -1 1145 0;
#X obj 62 191 line~;
#X msg 62 154 \$1 20;
#X obj 62 230 outlet~;
#X obj 102 -112 random 1001;
#X obj 102 33 line;
#X obj 102 -18 pack 0 0;
#X obj 102 -154 r \$0-randomdelay;
#X obj 211 -71 inlet;
#X connect 1 0 3 0;
#X connect 2 0 1 0;
#X connect 4 0 6 0;
#X connect 5 0 0 0;
#X connect 6 0 5 0;
#X connect 6 0 1 0;
#X connect 7 0 4 0;
#X connect 8 0 6 1;
#X coords 0 -1 1 1 260 28 1 100 100;
#X restore 675 459 pd time;
#X text 599 648 cuidado con el feedback!!;
#X obj 67 -20 loadbang;
#X obj 74 299 inlet~;
#X msg 341 144 200;
#X obj 342 96 loadbang;
#X text 109 100 MULTITAP;
#X obj 328 305 r~ \$0-feedback;
#X obj 201 679 send~ \$0-feedback;
#X obj 67 58 s \$0-randomdelay;
#X obj 858 88 s \$0-time;
#X obj 155 215 hsl 128 15 0 10000 0 0 empty empty Time -2 -8 0 10 -262144
-1 -1 254 1;
#X obj 482 714 line~;
#X obj 386 687 *~;
#X obj 522 659 route 1;
#X msg 528 683 1 200;
#X msg 569 684 0 200;
#X obj 364 711 throw~ MULTITAP;
#X obj 240 155 tgl 30 0 empty empty empty 17 7 0 10 -4160 -1 -1 1 1
;
#X obj 263 50 loadbang;
#X msg 270 78 1;
#X obj 199 359 delwrite~ \$0-buffer1 10000;
#X obj 201 426 vd~ \$0-buffer1;
#X obj 214 470 vd~ \$0-buffer1;
#X obj 232 515 vd~ \$0-buffer1;
#X obj 245 558 vd~ \$0-buffer1;
#X connect 0 0 2 0;
#X connect 0 0 35 0;
#X connect 1 0 0 0;
#X connect 2 0 27 0;
#X connect 3 0 22 0;
#X connect 4 0 3 1;
#X connect 4 0 5 0;
#X connect 7 0 36 0;
#X connect 10 0 23 0;
#X connect 12 0 37 0;
#X connect 13 0 38 0;
#X connect 14 0 39 0;
#X connect 16 0 10 0;
#X connect 17 0 2 0;
#X connect 17 0 35 0;
#X connect 18 0 25 0;
#X connect 19 0 18 0;
#X connect 21 0 35 0;
#X connect 25 0 24 0;
#X connect 25 0 7 0;
#X connect 25 0 12 0;
#X connect 25 0 13 0;
#X connect 25 0 14 0;
#X connect 26 0 27 1;
#X connect 27 0 31 0;
#X connect 28 0 29 0;
#X connect 28 1 30 0;
#X connect 29 0 26 0;
#X connect 30 0 26 0;
#X connect 32 0 28 0;
#X connect 33 0 34 0;
#X connect 34 0 32 0;
#X connect 36 0 2 0;
#X connect 36 0 3 0;
#X connect 37 0 3 0;
#X connect 37 0 2 0;
#X connect 38 0 3 0;
#X connect 38 0 2 0;
#X connect 39 0 3 0;
#X connect 39 0 2 0;
#X coords 0 -1 1 1 200 150 2 100 100;
