#N canvas 1 22 1280 699 24;
#X obj 1009 584 output~;
#N canvas 206 22 975 668 multitap 0;
#N canvas 0 22 889 450 pulso 0;
#X obj 434 50 inlet;
#X obj 262 256 *~;
#X obj 262 364 outlet~;
#X obj 434 165 vline~;
#X obj 132 83 osc~ 440;
#X msg 434 90 1 10 \, 0.3 20 10 \, 0 200 20;
#X connect 0 0 5 0;
#X connect 1 0 2 0;
#X connect 3 0 1 1;
#X connect 4 0 1 0;
#X connect 5 0 3 0;
#X restore 181 307 pd pulso;
#X obj 181 264 bng 35 250 50 0 empty empty empty 17 7 0 10 -262144
-1 -1;
#N canvas 0 22 450 300 io 0;
#X obj 194 74 inlet~;
#X obj 190 167 outlet~;
#X connect 0 0 1 0;
#X restore 181 724 pd io;
#X obj 201 679 send~ feedback;
#X obj 328 305 r~ feedback;
#X obj 201 640 *~;
#X obj 108 158 hsl 100 25 0 0.25 0 0 empty empty Feedback -2 -15 0
15 -262144 -1 -1 0 1;
#X floatatom 441 653 5 0 0 0 - - -, f 5;
#X text 748 608 Feedbback;
#N canvas 496 310 830 480 time 0;
#X obj 106 101 hsl 250 25 0 1000 0 0 empty empty empty -2 -8 0 10 -262144
-1 -1 18526 0;
#X obj 62 191 line~;
#X msg 62 154 \$1 20;
#X obj 62 230 outlet~;
#X obj 102 -112 random 1001;
#X obj 102 33 line;
#X obj 211 -71 r time;
#X obj 102 -18 pack 0 0;
#X obj 102 -154 r randomdelay;
#X connect 1 0 3 0;
#X connect 2 0 1 0;
#X connect 4 0 7 0;
#X connect 5 0 0 0;
#X connect 6 0 7 1;
#X connect 7 0 5 0;
#X connect 7 0 1 0;
#X connect 8 0 4 0;
#X coords 0 -1 1 1 260 28 1 100 100;
#X restore 675 357 pd time;
#X text 669 323 0_________________1000 ms;
#X text 497 51 Multitap Delay;
#X obj 858 88 s time;
#X floatatom 163 218 9 0 0 2 Interpolacion - -, f 9;
#X obj 106 203 bng 40 250 50 0 empty empty empty 17 7 0 10 -262144
-1 -1;
#X text 113 11 Nuevos Delays;
#X obj 67 58 s randomdelay;
#N canvas 0 22 830 480 time 0;
#X obj 106 101 hsl 250 25 0 1000 0 0 empty empty empty -2 -8 0 10 -262144
-1 -1 23157 0;
#X obj 62 191 line~;
#X msg 62 154 \$1 20;
#X obj 62 230 outlet~;
#X obj 102 -112 random 1001;
#X obj 102 33 line;
#X obj 211 -71 r time;
#X obj 102 -18 pack 0 0;
#X obj 102 -154 r randomdelay;
#X connect 1 0 3 0;
#X connect 2 0 1 0;
#X connect 4 0 7 0;
#X connect 5 0 0 0;
#X connect 6 0 7 1;
#X connect 7 0 5 0;
#X connect 7 0 1 0;
#X connect 8 0 4 0;
#X coords 0 -1 1 1 260 28 1 100 100;
#X restore 675 391 pd time;
#N canvas 0 22 830 480 time 0;
#X obj 106 101 hsl 250 25 0 1000 0 0 empty empty empty -2 -8 0 10 -262144
-1 -1 18127 0;
#X obj 62 191 line~;
#X msg 62 154 \$1 20;
#X obj 62 230 outlet~;
#X obj 102 -112 random 1001;
#X obj 102 33 line;
#X obj 211 -71 r time;
#X obj 102 -18 pack 0 0;
#X obj 102 -154 r randomdelay;
#X connect 1 0 3 0;
#X connect 2 0 1 0;
#X connect 4 0 7 0;
#X connect 5 0 0 0;
#X connect 6 0 7 1;
#X connect 7 0 5 0;
#X connect 7 0 1 0;
#X connect 8 0 4 0;
#X coords 0 -1 1 1 260 28 1 100 100;
#X restore 675 425 pd time;
#N canvas 0 22 830 480 time 0;
#X obj 106 101 hsl 250 25 0 1000 0 0 empty empty empty -2 -8 0 10 -262144
-1 -1 22908 0;
#X obj 62 191 line~;
#X msg 62 154 \$1 20;
#X obj 62 230 outlet~;
#X obj 102 -112 random 1001;
#X obj 102 33 line;
#X obj 211 -71 r time;
#X obj 102 -18 pack 0 0;
#X obj 102 -154 r randomdelay;
#X connect 1 0 3 0;
#X connect 2 0 1 0;
#X connect 4 0 7 0;
#X connect 5 0 0 0;
#X connect 6 0 7 1;
#X connect 7 0 5 0;
#X connect 7 0 1 0;
#X connect 8 0 4 0;
#X coords 0 -1 1 1 260 28 1 100 100;
#X restore 675 459 pd time;
#X text 599 648 cuidado con el feedback!!;
#X obj 199 359 delwrite~ buffer1 1000;
#X obj 201 426 vd~ buffer1;
#X obj 214 470 vd~ buffer1;
#X obj 232 515 vd~ buffer1;
#X obj 245 558 vd~ buffer1;
#X obj 67 -20 loadbang;
#X obj 364 711 outlet~;
#X obj 74 299 inlet~;
#X msg 341 144 200;
#X obj 342 96 loadbang;
#X text 109 100 MULTITAP;
#X connect 0 0 2 0;
#X connect 0 0 21 0;
#X connect 1 0 0 0;
#X connect 2 0 27 0;
#X connect 4 0 21 0;
#X connect 5 0 3 0;
#X connect 6 0 5 1;
#X connect 6 0 7 0;
#X connect 9 0 22 0;
#X connect 13 0 12 0;
#X connect 14 0 16 0;
#X connect 17 0 23 0;
#X connect 18 0 24 0;
#X connect 19 0 25 0;
#X connect 22 0 2 0;
#X connect 22 0 5 0;
#X connect 23 0 5 0;
#X connect 23 0 2 0;
#X connect 24 0 5 0;
#X connect 24 0 2 0;
#X connect 25 0 5 0;
#X connect 25 0 2 0;
#X connect 26 0 14 0;
#X connect 28 0 2 0;
#X connect 28 0 21 0;
#X connect 29 0 13 0;
#X connect 30 0 29 0;
#X coords 0 -1 1 1 200 150 2 100 100;
#X restore 133 516 pd multitap;
#X obj 118 349 adc~ 1;
#N canvas 0 22 1280 665 flanger 0;
#X obj 327 799 *~;
#X obj 224 151 vsl 15 60 0 0.99 0 0 empty empty Feedback 0 -9 0 10
-262144 -1 -1 0 1;
#X floatatom 621 840 5 0 0 0 - - -, f 5;
#X text 605 310 Flanger;
#X obj 287 549 osc~;
#X floatatom 287 513 5 0 0 0 - - -, f 5;
#X obj 328 679 *~;
#X obj 287 583 +~ 1;
#X obj 287 615 /~ 2;
#X obj 169 151 vsl 15 60 0 100 0 0 empty empty Depth 0 -9 0 10 -4034
-1 -1 0 1;
#X floatatom 457 707 5 0 0 0 - - -, f 5;
#N canvas 170 520 450 300 IO 0;
#X obj 154 79 inlet~;
#X obj 155 155 outlet~;
#X connect 0 0 1 0;
#X restore 141 863 pd IO;
#X text 458 743 Delay Variable;
#X text 309 371 Recibo Realimentación;
#X text 324 875 Envío Realimentación;
#X text 137 388 Reproductor;
#X text 669 311 Efecto de sonido que produce un sonido metalizado oscilante
\, sobre todo en frecuencias medias y altas.;
#X msg 207 490 0.05;
#X obj 182 453 loadbang;
#X text 473 659 Profundidad Delay;
#X obj 313 439 delwrite~ buffer 3000;
#X obj 327 743 vd~ buffer;
#X obj 326 850 s~ feedback1;
#X obj 312 396 r~ feedback1;
#X obj 176 799 *~;
#X obj 112 151 vsl 15 60 0 1 0 0 empty empty Dry/Wet 0 -9 0 10 -262144
-1 -1 0 1;
#X obj 139 413 inlet~;
#X obj 132 903 outlet~;
#X text 105 103 FLANGER;
#X obj 443 97 ctlin;
#X floatatom 444 139 5 0 0 0 - - -, f 5;
#X floatatom 514 139 5 0 0 0 - - -, f 5;
#X obj 100 36 ctlin 81;
#X obj 196 36 ctlin 82;
#X obj 292 36 ctlin 83;
#X obj 62 70 / 127;
#X obj 296 69 / 127;
#X obj 192 70 / 1.27;
#X connect 0 0 22 0;
#X connect 0 0 24 0;
#X connect 1 0 0 1;
#X connect 1 0 2 0;
#X connect 4 0 7 0;
#X connect 5 0 4 0;
#X connect 6 0 21 0;
#X connect 7 0 8 0;
#X connect 8 0 6 0;
#X connect 9 0 6 1;
#X connect 9 0 10 0;
#X connect 11 0 27 0;
#X connect 17 0 5 0;
#X connect 18 0 17 0;
#X connect 21 0 0 0;
#X connect 23 0 20 0;
#X connect 24 0 11 0;
#X connect 25 0 24 1;
#X connect 26 0 20 0;
#X connect 26 0 11 0;
#X connect 29 0 30 0;
#X connect 29 1 31 0;
#X connect 32 0 35 0;
#X connect 33 0 37 0;
#X connect 34 0 36 0;
#X connect 35 0 25 0;
#X connect 36 0 1 0;
#X connect 37 0 9 0;
#X coords 0 -1 1 1 200 120 2 100 100;
#X restore 344 517 pd flanger;
#N canvas 292 22 988 668 phaser 0;
#X obj 617 188 hsl 128 15 0 10 0 0 empty empty empty -2 -8 0 10 -262144
-1 -1 0 1;
#X obj 297 534 *~ 2;
#X obj 297 554 +~ 2;
#X obj 422 520 *~ 2;
#X obj 421 543 +~ 2;
#X obj 135 451 delwrite~ phase2 100;
#X obj 421 569 vd~ phase2;
#X obj 392 421 phasor~;
#X obj 296 464 cos~;
#X obj 422 496 cos~;
#X obj 616 284 hsl 128 15 0 3 0 0 empty empty empty -2 -8 0 10 -262144
-1 -1 0 1;
#X obj 421 719 *~ 0.8;
#X obj 298 661 *~ 0.8;
#X obj 618 380 hsl 128 15 -0.9 0.9 0 0 empty empty empty -2 -8 0 10
-262144 -1 -1 0 1;
#X obj 297 590 vd~ phase1;
#X obj 136 394 delwrite~ phase1 100;
#X floatatom 614 212 5 0 0 0 - - -, f 5;
#X floatatom 613 310 5 0 0 0 - - -, f 5;
#X floatatom 615 401 5 0 0 0 - - -, f 5;
#X text 455 421 LFO;
#N canvas 360 427 450 300 io 0;
#X obj 90 117 inlet~;
#X obj 90 190 outlet~;
#X connect 0 0 1 0;
#X restore 51 619 pd io;
#X text 65 556 audio de los delays;
#X text 757 184 Velocidad de LFO;
#X text 758 282 Profundidad del LFO;
#X text 758 380 Feedback de ambos lfo;
#X obj 298 688 s~ feedbackPhase1;
#X obj 421 744 s~ feedbackPhase2;
#X obj 136 368 r~ feedbackPhase1;
#X obj 135 428 r~ feedbackPhase2;
#X obj 613 335 s depth;
#X obj 332 504 r depth;
#X obj 467 497 r depth;
#X obj 615 422 s feedback;
#X obj 454 691 r feedback;
#X obj 331 632 r feedback;
#X obj 62 577 catch~ output;
#X obj 200 614 throw~ output;
#X obj 436 597 throw~ output;
#X obj 428 446 +~ 0.5;
#X obj 428 472 wrap~;
#X obj 51 662 outlet~;
#X obj 47 313 inlet~;
#X obj 107 144 vsl 15 60 0 10 0 0 empty empty Speed 0 -9 0 10 -262144
-1 -1 0 1;
#X obj 147 144 vsl 15 60 0 3 0 0 empty empty Depth 0 -9 0 10 -262144
-1 -1 0 1;
#X obj 188 144 vsl 15 60 -0.9 0.9 0 0 empty empty Feedback 0 -9 0 10
-262144 -1 -1 0 1;
#X text 102 102 PHASER;
#X obj 84 29 ctlin 84;
#X obj 98 66 / 12.7;
#X obj 182 4 ctlin 85;
#X obj 293 24 ctlin 86;
#X obj 196 41 / 127;
#X obj 195 70 * 3;
#X obj 294 51 / 127;
#X connect 0 0 7 0;
#X connect 0 0 16 0;
#X connect 1 0 2 0;
#X connect 2 0 14 0;
#X connect 3 0 4 0;
#X connect 4 0 6 0;
#X connect 6 0 11 0;
#X connect 6 0 37 0;
#X connect 7 0 8 0;
#X connect 7 0 38 0;
#X connect 8 0 1 0;
#X connect 9 0 3 0;
#X connect 10 0 17 0;
#X connect 11 0 26 0;
#X connect 12 0 25 0;
#X connect 13 0 18 0;
#X connect 14 0 12 0;
#X connect 14 0 36 0;
#X connect 17 0 29 0;
#X connect 18 0 32 0;
#X connect 20 0 40 0;
#X connect 27 0 15 0;
#X connect 28 0 5 0;
#X connect 30 0 1 1;
#X connect 30 0 2 1;
#X connect 31 0 3 1;
#X connect 31 0 4 1;
#X connect 33 0 11 1;
#X connect 34 0 12 1;
#X connect 35 0 20 0;
#X connect 38 0 39 0;
#X connect 39 0 9 0;
#X connect 41 0 15 0;
#X connect 41 0 5 0;
#X connect 41 0 20 0;
#X connect 42 0 0 0;
#X connect 43 0 10 0;
#X connect 44 0 13 0;
#X connect 46 0 47 0;
#X connect 47 0 42 0;
#X connect 48 0 50 0;
#X connect 49 0 52 0;
#X connect 50 0 51 0;
#X connect 51 0 43 0;
#X connect 52 0 44 0;
#X coords 0 -1 1 1 150 120 2 100 100;
#X restore 552 518 pd phaser;
#X obj 883 202 tgl 40 0 empty empty On/Off 0 -9 0 10 -260097 -1 -1
0 1;
#N canvas 123 172 1280 523 notas 0;
#X msg 43 283 261.63;
#X msg 139 284 277.18;
#X text 48 248 DO;
#X text 140 247 DO#;
#X text 230 247 RE;
#X msg 228 282 293.66;
#X text 327 244 RE#;
#X text 419 243 MI;
#X text 509 243 FA;
#X msg 322 279 311.13;
#X msg 418 280 329.63;
#X msg 506 277 349.23;
#X text 614 242 FA#;
#X text 706 241 SOL;
#X text 758 240 SOL#;
#X msg 609 277 369.99;
#X msg 705 278 392;
#X msg 756 275 415.3;
#X text 844 238 LA;
#X text 895 234 LA#;
#X text 988 236 SI;
#X msg 839 273 440;
#X msg 894 271 466.16;
#X msg 986 271 493.88;
#X obj 47 368 outlet;
#X obj 114 13 key;
#X floatatom 112 44 5 0 0 0 - - -, f 5;
#X obj 147 367 outlet;
#X obj 237 367 outlet;
#X obj 337 366 outlet;
#X obj 421 364 outlet;
#X obj 521 363 outlet;
#X obj 611 363 outlet;
#X obj 711 362 outlet;
#X obj 796 360 outlet;
#X obj 896 359 outlet;
#X obj 986 359 outlet;
#X obj 1086 358 outlet;
#X obj 1166 357 outlet;
#X obj 220 151 select 49 50 51 52 53 54 55 56 57 48 45 61;
#X connect 0 0 24 0;
#X connect 0 0 38 0;
#X connect 1 0 27 0;
#X connect 1 0 38 0;
#X connect 5 0 28 0;
#X connect 5 0 38 0;
#X connect 9 0 29 0;
#X connect 9 0 38 0;
#X connect 10 0 30 0;
#X connect 10 0 38 0;
#X connect 11 0 31 0;
#X connect 11 0 38 0;
#X connect 15 0 32 0;
#X connect 15 0 38 0;
#X connect 16 0 33 0;
#X connect 16 0 38 0;
#X connect 17 0 34 0;
#X connect 17 0 38 0;
#X connect 21 0 35 0;
#X connect 21 0 38 0;
#X connect 22 0 36 0;
#X connect 22 0 38 0;
#X connect 23 0 37 0;
#X connect 23 0 38 0;
#X connect 25 0 26 0;
#X connect 26 0 39 0;
#X connect 39 0 0 0;
#X connect 39 1 1 0;
#X connect 39 2 5 0;
#X connect 39 3 9 0;
#X connect 39 4 10 0;
#X connect 39 5 11 0;
#X connect 39 6 15 0;
#X connect 39 7 16 0;
#X connect 39 8 17 0;
#X connect 39 9 21 0;
#X connect 39 10 22 0;
#X connect 39 11 23 0;
#X restore 139 -1 pd notas ........;
#X obj 267 681 throw~ efectos-left;
#X obj 490 679 throw~ efectos-right;
#X obj 831 505 catch~ efectos-left;
#X obj 1064 508 catch~ efectos-right;
#X obj 410 364 throw~ sinte-left;
#X obj 606 363 throw~ sinte-right;
#X obj 857 470 catch~ sinte-left;
#X obj 1053 469 catch~ sinte-right;
#X obj 17 299 vsl 15 128 0 0.3 0 0 empty empty empty 0 -9 0 10 -262144
-1 -1 0 1;
#X obj 65 397 *~;
#X obj 16 212 ctlin 87;
#X obj 17 251 / 127;
#X obj 725 33 sinte;
#X obj 139 36 sinte;
#X obj 303 37 sinte;
#X obj 440 36 sinte;
#X obj 588 34 sinte;
#X obj 336 459 spigot~;
#X obj 444 443 tgl 15 0 empty empty empty 17 7 0 10 -262144 -1 -1 0
1;
#X obj 205 351 adc~ 2;
#X obj 168 402 *~;
#X obj 344 417 adc~ 3;
#X obj 205 271 dac~;
#X connect 1 0 7 0;
#X connect 1 0 8 0;
#X connect 2 0 16 0;
#X connect 3 0 7 0;
#X connect 3 0 8 0;
#X connect 4 0 8 0;
#X connect 4 0 7 0;
#X connect 6 0 20 0;
#X connect 6 1 21 0;
#X connect 6 2 22 0;
#X connect 6 3 23 0;
#X connect 6 4 19 0;
#X connect 9 0 0 0;
#X connect 10 0 0 1;
#X connect 13 0 0 0;
#X connect 14 0 0 1;
#X connect 15 0 16 1;
#X connect 15 0 27 1;
#X connect 16 0 1 0;
#X connect 17 0 18 0;
#X connect 18 0 15 0;
#X connect 20 0 29 0;
#X connect 20 0 29 1;
#X connect 24 0 4 0;
#X connect 25 0 24 1;
#X connect 26 0 27 0;
#X connect 27 0 1 0;
#X connect 28 0 24 0;
