#N canvas 292 113 823 707 10;
#X obj 844 398 line~;
#X obj 1081 411 line~;
#X obj 768 689 *~;
#X obj 978 405 line~;
#X text 336 3 En este ejemplo se utiliza una FM para modular otra FM
;
#X obj 768 729 outlet~;
#X floatatom 143 201 5 0 0 2 Frec - -, f 5;
#X obj 642 187 t b a;
#X obj 568 131 bng 15 250 50 0 empty empty empty 17 7 0 10 -262144
-1 -1;
#X msg 624 104 440;
#X obj 668 72 loadbang;
#X msg 146 674 set duration \$1;
#X obj 571 85 t b a;
#X obj 108 219 vradio 8 1 0 8 empty empty empty 0 -8 0 10 -262144 -1
-1 2;
#X msg -26 571 100;
#X msg 6 571 500;
#X msg 38 570 1000;
#X msg 75 570 2000;
#X msg 111 570 5000;
#X msg 146 570 10000;
#X msg 189 570 30000;
#X msg 232 569 50000;
#X obj 29 526 route 0 1 2 3 4 5 6 7;
#X obj 104 172 hradio 8 1 0 8 empty empty empty 0 -8 0 10 -262144 -1
-1 0;
#X obj 82 622 s \$0-presetTime;
#X obj 300 191 route 0 1 2 3 4 5 6 7;
#X obj 352 286 s \$0-presetTranslate;
#X obj 373 55 r \$0-presetTranslate;
#X obj 361 102 *;
#X floatatom 106 201 5 0 0 2 Trans - -, f 5;
#X msg 78 58 3;
#X obj 38 34 loadbang;
#X obj 391 79 t b a;
#X floatatom 353 82 5 0 0 0 - - -, f 5;
#X obj 891 80 inlet;
#X msg 776 340 1 1000;
#X obj 647 266 * 1.4;
#X obj 82 622 s \$0-presetTime;
#X obj 741 191 vsl 15 128 0 10 0 0 empty empty empty 0 -9 0 10 -262144
-1 -1 254 1;
#X obj 1012 170 r \$0-presetTime;
#X obj 963 246 pack \$1 \$2;
#X floatatom 1014 199 5 0 0 0 - - -, f 5;
#X obj 957 129 bng 15 250 50 0 empty empty empty 17 7 0 10 -262144
-1 -1;
#X msg 956 177 1;
#X msg 970 279 set \$1 \$2;
#X obj 972 154 t b b;
#X obj 956 311 t b a;
#X msg 867 354 0 5000;
#X obj 1136 246 pack \$1 \$2;
#X floatatom 1187 199 5 0 0 0 - - -, f 5;
#X obj 1130 129 bng 15 250 50 0 empty empty empty 17 7 0 10 -262144
-1 -1;
#X msg 1143 279 set \$1 \$2;
#X obj 1145 154 t b b;
#X obj 1129 311 t b a;
#X msg 1129 177 0;
#X msg 278 641 100;
#X msg 310 641 500;
#X msg 342 640 1000;
#X msg 379 640 2000;
#X msg 415 640 5000;
#X msg 450 640 10000;
#X msg 493 640 30000;
#X obj 333 596 route 0 1 2 3 4 5 6 7;
#X obj 153 221 vradio 8 1 0 8 empty empty empty 0 -8 0 10 -262144 -1
-1 4;
#X obj 382 722 s \$0-presetTimeRelease;
#X obj 1185 170 r \$0-presetTimeRelease;
#X obj 795 214 route 1;
#X msg 534 640 50000;
#X floatatom 107 289 5 0 0 0 - - -, f 5;
#X floatatom 147 290 5 0 0 0 - - -, f 5;
#X obj 212 233 bng 15 250 50 0 empty empty empty 17 7 0 10 -262144
-1 -1;
#X obj 1020 48 inlet;
#X msg 716 144 0.2;
#X obj 659 440 osc~;
#X obj 659 475 *~;
#X obj 659 541 +~;
#X obj 659 569 osc~;
#X floatatom 659 407 5 0 0 1 Frec._Moduladora - -, f 5;
#X msg 245 236 0.5;
#X msg 277 236 1;
#X msg 309 235 2;
#X msg 346 235 3;
#X msg 382 235 4;
#X msg 417 235 5;
#X msg 460 235 6;
#X msg 503 234 10;
#X obj 978 435 *~ 50;
#X obj 844 428 *~ 500;
#X obj 980 86 r \$0-presetTime;
#X obj 998 124 delay;
#X msg 887 139 1;
#X obj 104 118 hradio 8 1 0 12 empty empty empty 0 -8 0 10 -262144
-1 -1 2;
#X floatatom 130 134 5 0 0 0 - - -, f 5;
#X obj 298 393 route 0 1 2 3 4 5 6 7 8 9 10 11;
#X obj 351 489 s \$0-presetNote;
#X msg 23 439 261.62;
#X msg 74 438 277.18;
#X msg 123 438 293.66;
#X msg 171 437 311.12;
#X msg 219 436 329.62;
#X msg 268 436 349.22;
#X msg 315 436 369.99;
#X msg 364 436 391.99;
#X msg 414 436 415.3;
#X msg 460 437 440;
#X msg 487 437 466.16;
#X msg 534 438 493.88;
#X obj 556 33 r \$0-presetNote;
#X text 106 101 Nota Base;
#X text 105 148 Octava;
#X msg 111 49 0;
#X msg 48 78 0;
#X obj 831 117 spigot;
#X obj 177 240 tgl 15 0 empty empty empty 17 7 0 10 -262144 -1 -1 0
1;
#X obj 194 101 bng 15 250 50 0 empty empty empty 17 7 0 10 -4034 -1
-1;
#X connect 0 0 87 0;
#X connect 1 0 2 1;
#X connect 2 0 5 0;
#X connect 3 0 86 0;
#X connect 6 0 7 0;
#X connect 7 1 36 0;
#X connect 8 0 6 0;
#X connect 8 0 70 0;
#X connect 9 0 6 0;
#X connect 10 0 9 0;
#X connect 10 0 72 0;
#X connect 12 0 8 0;
#X connect 12 1 33 0;
#X connect 13 0 22 0;
#X connect 13 0 68 0;
#X connect 14 0 24 0;
#X connect 15 0 24 0;
#X connect 16 0 24 0;
#X connect 17 0 24 0;
#X connect 18 0 24 0;
#X connect 19 0 24 0;
#X connect 20 0 24 0;
#X connect 21 0 24 0;
#X connect 22 0 14 0;
#X connect 22 1 15 0;
#X connect 22 2 16 0;
#X connect 22 3 17 0;
#X connect 22 4 18 0;
#X connect 22 5 19 0;
#X connect 22 6 20 0;
#X connect 22 7 21 0;
#X connect 23 0 25 0;
#X connect 25 0 78 0;
#X connect 25 1 79 0;
#X connect 25 2 80 0;
#X connect 25 3 81 0;
#X connect 25 4 82 0;
#X connect 25 5 83 0;
#X connect 25 6 84 0;
#X connect 25 7 85 0;
#X connect 27 0 29 0;
#X connect 27 0 32 0;
#X connect 28 0 6 0;
#X connect 28 0 77 0;
#X connect 30 0 23 0;
#X connect 31 0 30 0;
#X connect 31 0 111 0;
#X connect 31 0 110 0;
#X connect 32 0 33 0;
#X connect 32 1 28 1;
#X connect 33 0 28 0;
#X connect 34 0 112 0;
#X connect 34 0 114 0;
#X connect 35 0 0 0;
#X connect 35 0 3 0;
#X connect 35 0 1 0;
#X connect 38 0 36 1;
#X connect 39 0 41 0;
#X connect 40 0 44 0;
#X connect 41 0 40 1;
#X connect 42 0 45 0;
#X connect 42 0 89 0;
#X connect 43 0 40 0;
#X connect 44 0 46 0;
#X connect 45 0 43 0;
#X connect 45 1 41 0;
#X connect 46 0 35 0;
#X connect 46 1 35 0;
#X connect 47 0 0 0;
#X connect 47 0 3 0;
#X connect 47 0 1 0;
#X connect 48 0 51 0;
#X connect 49 0 48 1;
#X connect 50 0 52 0;
#X connect 51 0 53 0;
#X connect 52 0 54 0;
#X connect 52 1 49 0;
#X connect 53 0 47 0;
#X connect 53 1 47 0;
#X connect 54 0 48 0;
#X connect 55 0 64 0;
#X connect 56 0 64 0;
#X connect 57 0 64 0;
#X connect 58 0 64 0;
#X connect 59 0 64 0;
#X connect 60 0 64 0;
#X connect 61 0 64 0;
#X connect 62 0 55 0;
#X connect 62 1 56 0;
#X connect 62 2 57 0;
#X connect 62 3 58 0;
#X connect 62 4 59 0;
#X connect 62 5 60 0;
#X connect 62 6 61 0;
#X connect 62 7 67 0;
#X connect 63 0 62 0;
#X connect 63 0 69 0;
#X connect 65 0 49 0;
#X connect 66 0 42 0;
#X connect 67 0 64 0;
#X connect 71 0 23 0;
#X connect 72 0 38 0;
#X connect 73 0 74 0;
#X connect 74 0 75 0;
#X connect 75 0 76 0;
#X connect 76 0 2 0;
#X connect 77 0 73 0;
#X connect 78 0 26 0;
#X connect 79 0 26 0;
#X connect 80 0 26 0;
#X connect 81 0 26 0;
#X connect 82 0 26 0;
#X connect 83 0 26 0;
#X connect 84 0 26 0;
#X connect 85 0 26 0;
#X connect 86 0 75 1;
#X connect 87 0 74 1;
#X connect 88 0 89 1;
#X connect 89 0 50 0;
#X connect 90 0 66 0;
#X connect 91 0 93 0;
#X connect 93 0 95 0;
#X connect 93 1 96 0;
#X connect 93 2 97 0;
#X connect 93 3 98 0;
#X connect 93 4 99 0;
#X connect 93 5 100 0;
#X connect 93 6 101 0;
#X connect 93 7 102 0;
#X connect 93 8 103 0;
#X connect 93 9 104 0;
#X connect 93 10 105 0;
#X connect 93 11 106 0;
#X connect 95 0 94 0;
#X connect 96 0 94 0;
#X connect 97 0 94 0;
#X connect 98 0 94 0;
#X connect 99 0 94 0;
#X connect 100 0 94 0;
#X connect 101 0 94 0;
#X connect 102 0 94 0;
#X connect 103 0 94 0;
#X connect 104 0 94 0;
#X connect 105 0 94 0;
#X connect 106 0 94 0;
#X connect 107 0 12 0;
#X connect 107 0 92 0;
#X connect 110 0 91 0;
#X connect 111 0 13 0;
#X connect 111 0 63 0;
#X connect 112 0 90 0;
#X connect 113 0 112 1;
#X coords 0 -1 1 1 110 210 2 100 100;
