#N canvas 0 23 1246 699 10;
#X obj 605 429 osc~;
#X obj 606 564 osc~;
#X obj 607 529 +~;
#X floatatom 715 497 5 0 0 0 - - -, f 5;
#X obj 606 469 *~;
#X floatatom 605 392 5 0 0 0 - - -, f 5;
#X obj 607 607 *~;
#X obj 797 412 line~;
#X obj 1081 411 line~;
#X obj 767 646 osc~;
#X floatatom 775 553 5 0 0 0 - - -, f 5;
#X text 854 585 Fp;
#X obj 768 689 *~;
#X text 817 691 Ap;
#X obj 931 419 line~;
#X text 656 609 Am2;
#X text 649 468 Am1;
#X text 665 397 Fm1;
#X text 336 3 En este ejemplo se utiliza una FM para modular otra FM
;
#X text 693 503 FP1;
#X obj 768 729 outlet~;
#X floatatom 164 138 5 0 0 2 Frec - -, f 5;
#X obj 642 187 t b a;
#X obj 568 131 bng 15 250 50 0 empty empty empty 17 7 0 10 -262144
-1 -1;
#X msg 624 104 440;
#X obj 574 57 inlet;
#X obj 668 72 loadbang;
#X msg 151 479 set duration \$1;
#X obj 571 85 t b a;
#X obj 118 158 vradio 15 1 0 8 empty empty empty 0 -8 0 10 -262144
-1 -1 5;
#X msg -21 376 100;
#X msg 11 376 500;
#X msg 43 375 1000;
#X msg 80 375 2000;
#X msg 116 375 5000;
#X msg 151 375 10000;
#X msg 194 375 30000;
#X msg 237 374 50000;
#X obj 34 331 route 0 1 2 3 4 5 6 7;
#X obj 103 106 hradio 15 1 0 8 empty empty empty 0 -8 0 10 -262144
-1 -1 7;
#X obj 87 427 s \$0-presetTime;
#X obj 300 191 route 0 1 2 3 4 5 6 7;
#X obj 352 286 s \$0-presetTranslate;
#X msg 460 235 8;
#X msg 503 234 10;
#X obj 373 55 r \$0-presetTranslate;
#X obj 361 102 *;
#X floatatom 116 140 5 0 0 2 Trans - -, f 5;
#X msg 309 235 0.5;
#X msg 346 235 1;
#X msg 382 235 2;
#X msg 417 235 4;
#X msg 78 58 3;
#X obj 38 34 loadbang;
#X msg 245 236 0.01;
#X msg 277 236 0.1;
#X obj 391 79 t b a;
#X floatatom 353 82 5 0 0 0 - - -, f 5;
#X obj 768 596 +~ 1;
#X msg 776 340 1 2000;
#X obj 833 533 * 100;
#X obj 730 339 * 1.4;
#X obj 931 449 *~ 600;
#X obj 87 427 s \$0-presetTime;
#X obj 741 191 vsl 15 128 0 10 0 0 empty empty empty 0 -9 0 10 -262144
-1 -1 1654 1;
#X obj 1012 170 r \$0-presetTime;
#X obj 963 246 pack \$1 \$2;
#X floatatom 1014 199 5 0 0 0 - - -, f 5;
#X obj 957 129 bng 15 250 50 0 empty empty empty 17 7 0 10 -262144
-1 -1;
#X msg 956 177 1;
#X msg 970 279 set \$1 \$2;
#X obj 972 154 t b b;
#X obj 956 311 t b a;
#X msg 867 354 0 2000;
#X obj 1136 246 pack \$1 \$2;
#X floatatom 1187 199 5 0 0 0 - - -, f 5;
#X obj 1130 129 bng 15 250 50 0 empty empty empty 17 7 0 10 -262144
-1 -1;
#X msg 1143 279 set \$1 \$2;
#X obj 1145 154 t b b;
#X obj 1129 311 t b a;
#X msg 1129 177 0;
#X msg 283 446 100;
#X msg 315 446 500;
#X msg 347 445 1000;
#X msg 384 445 2000;
#X msg 420 445 5000;
#X msg 455 445 10000;
#X msg 498 445 30000;
#X obj 338 401 route 0 1 2 3 4 5 6 7;
#X obj 174 158 vradio 15 1 0 8 empty empty empty 0 -8 0 10 -262144
-1 -1 2;
#X obj 387 527 s \$0-presetTimeRelease;
#X obj 1185 170 r \$0-presetTimeRelease;
#X msg 539 445 50000;
#X floatatom 113 283 5 0 0 0 - - -, f 5;
#X floatatom 175 281 5 0 0 0 - - -, f 5;
#X obj 797 442 *~ 5000;
#X obj 210 141 bng 15 250 50 0 empty empty empty 17 7 0 10 -262144
-1 -1;
#X msg 48 78 4;
#X obj 151 48 inlet;
#X obj 192 50 inlet;
#X obj 1027 60 inlet;
#X obj 635 676 *~ 0.0001;
#X obj 890 689 lop~ 3000;
#X msg 716 144 0.2;
#X obj 785 99 inlet;
#X floatatom 792 189 5 0 0 0 - - -, f 5;
#X obj 795 214 route 1;
#X obj 785 147 > 40;
#X connect 0 0 4 0;
#X connect 1 0 6 0;
#X connect 1 0 58 0;
#X connect 2 0 1 0;
#X connect 3 0 60 0;
#X connect 3 0 2 1;
#X connect 4 0 2 0;
#X connect 5 0 0 0;
#X connect 6 0 101 0;
#X connect 7 0 95 0;
#X connect 8 0 12 1;
#X connect 9 0 12 0;
#X connect 10 0 58 1;
#X connect 12 0 102 0;
#X connect 14 0 62 0;
#X connect 21 0 22 0;
#X connect 22 1 5 0;
#X connect 22 1 61 0;
#X connect 23 0 21 0;
#X connect 23 0 96 0;
#X connect 24 0 21 0;
#X connect 25 0 28 0;
#X connect 26 0 24 0;
#X connect 26 0 103 0;
#X connect 28 0 23 0;
#X connect 28 1 57 0;
#X connect 29 0 38 0;
#X connect 29 0 93 0;
#X connect 30 0 40 0;
#X connect 31 0 40 0;
#X connect 32 0 40 0;
#X connect 33 0 40 0;
#X connect 34 0 40 0;
#X connect 35 0 40 0;
#X connect 36 0 40 0;
#X connect 37 0 40 0;
#X connect 38 0 30 0;
#X connect 38 1 31 0;
#X connect 38 2 32 0;
#X connect 38 3 33 0;
#X connect 38 4 34 0;
#X connect 38 5 35 0;
#X connect 38 6 36 0;
#X connect 38 7 37 0;
#X connect 39 0 41 0;
#X connect 41 0 54 0;
#X connect 41 1 55 0;
#X connect 41 2 48 0;
#X connect 41 3 49 0;
#X connect 41 4 50 0;
#X connect 41 5 51 0;
#X connect 41 6 43 0;
#X connect 41 7 44 0;
#X connect 43 0 42 0;
#X connect 44 0 42 0;
#X connect 45 0 47 0;
#X connect 45 0 56 0;
#X connect 46 0 21 0;
#X connect 48 0 42 0;
#X connect 49 0 42 0;
#X connect 50 0 42 0;
#X connect 51 0 42 0;
#X connect 52 0 39 0;
#X connect 53 0 52 0;
#X connect 53 0 97 0;
#X connect 54 0 42 0;
#X connect 55 0 42 0;
#X connect 56 0 57 0;
#X connect 56 1 46 1;
#X connect 57 0 46 0;
#X connect 58 0 9 0;
#X connect 59 0 7 0;
#X connect 59 0 14 0;
#X connect 59 0 8 0;
#X connect 60 0 10 0;
#X connect 61 0 3 0;
#X connect 62 0 6 1;
#X connect 64 0 61 1;
#X connect 65 0 67 0;
#X connect 66 0 70 0;
#X connect 67 0 66 1;
#X connect 68 0 71 0;
#X connect 69 0 66 0;
#X connect 70 0 72 0;
#X connect 71 0 69 0;
#X connect 71 1 67 0;
#X connect 72 0 59 0;
#X connect 72 1 59 0;
#X connect 73 0 7 0;
#X connect 73 0 14 0;
#X connect 73 0 8 0;
#X connect 74 0 77 0;
#X connect 75 0 74 1;
#X connect 76 0 78 0;
#X connect 77 0 79 0;
#X connect 78 0 80 0;
#X connect 78 1 75 0;
#X connect 79 0 73 0;
#X connect 79 1 73 0;
#X connect 80 0 74 0;
#X connect 81 0 90 0;
#X connect 82 0 90 0;
#X connect 83 0 90 0;
#X connect 84 0 90 0;
#X connect 85 0 90 0;
#X connect 86 0 90 0;
#X connect 87 0 90 0;
#X connect 88 0 81 0;
#X connect 88 1 82 0;
#X connect 88 2 83 0;
#X connect 88 3 84 0;
#X connect 88 4 85 0;
#X connect 88 5 86 0;
#X connect 88 6 87 0;
#X connect 88 7 92 0;
#X connect 89 0 88 0;
#X connect 89 0 94 0;
#X connect 91 0 75 0;
#X connect 92 0 90 0;
#X connect 95 0 4 1;
#X connect 97 0 29 0;
#X connect 97 0 89 0;
#X connect 98 0 29 0;
#X connect 99 0 89 0;
#X connect 100 0 39 0;
#X connect 101 0 12 0;
#X connect 102 0 20 0;
#X connect 103 0 64 0;
#X connect 104 0 107 0;
#X connect 105 0 106 0;
#X connect 106 0 68 0;
#X connect 106 1 76 0;
#X connect 107 0 105 0;
#X coords 0 -1 1 1 130 200 2 100 100;
