#N canvas 0 22 1175 726 10;
#N canvas 0 64 1280 523 notas 0;
#X msg 47 356 261.63;
#X text 54 377 DO;
#X text 253 148 RE#;
#X text 671 378 MI;
#X text 879 383 FA;
#X msg 248 181 311.13;
#X text 945 108 FA#;
#X text 1087 377 SOL;
#X text 1089 106 SOL#;
#X msg 940 143 369.99;
#X msg 1087 141 415.3;
#X text 1175 104 LA;
#X text 1252 186 LA#;
#X text 1319 102 SI;
#X msg 1170 139 440;
#X msg 1254 221 466.16;
#X msg 1317 137 493.88;
#X obj 46 404 outlet;
#X obj 114 13 key;
#X floatatom 112 44 5 0 0 0 - - -, f 5;
#X obj 95 429 outlet;
#X obj 496 107 select 49 50 51 52 53 54 55 56 57 48 45 61;
#X obj 95 355 expr if($f1==49 \, 1 \, 0);
#X floatatom 95 377 5 0 0 0 - - -, f 5;
#X floatatom 47 338 5 0 0 0 - - -, f 5;
#X obj 95 333 key;
#X obj 242 430 outlet;
#X obj 302 428 outlet;
#X floatatom 302 376 5 0 0 0 - - -, f 5;
#X floatatom 242 335 5 0 0 0 - - -, f 5;
#X obj 302 331 key;
#X obj 302 354 expr if($f1==50 \, 1 \, 0);
#X text 254 373 DO#;
#X msg 242 352 277.18;
#X obj 451 434 outlet;
#X obj 511 432 outlet;
#X floatatom 511 380 5 0 0 0 - - -, f 5;
#X floatatom 451 339 5 0 0 0 - - -, f 5;
#X obj 511 335 key;
#X msg 451 356 293.66;
#X text 463 377 RE;
#X obj 659 433 outlet;
#X obj 719 431 outlet;
#X floatatom 719 379 5 0 0 0 - - -, f 5;
#X floatatom 659 338 5 0 0 0 - - -, f 5;
#X obj 719 334 key;
#X obj 719 357 expr if($f1==52 \, 1 \, 0);
#X msg 659 355 329.63;
#X obj 871 434 outlet;
#X obj 931 432 outlet;
#X floatatom 931 380 5 0 0 0 - - -, f 5;
#X floatatom 871 339 5 0 0 0 - - -, f 5;
#X obj 931 335 key;
#X msg 871 356 349.23;
#X obj 931 358 expr if($f1==53 \, 1 \, 0);
#X obj 511 358 expr if($f1==51 \, 1 \, 0);
#X obj 1079 434 outlet;
#X obj 1139 432 outlet;
#X floatatom 1139 380 5 0 0 0 - - -, f 5;
#X floatatom 1079 339 5 0 0 0 - - -, f 5;
#X obj 1139 335 key;
#X msg 1079 356 392;
#X obj 1139 358 expr if($f1==54 \, 1 \, 0);
#X obj 1290 434 outlet;
#X obj 1350 432 outlet;
#X floatatom 1350 380 5 0 0 0 - - -, f 5;
#X floatatom 1290 339 5 0 0 0 - - -, f 5;
#X obj 1350 335 key;
#X msg 1290 356 466.16;
#X text 1298 377 LA#;
#X obj 1350 358 expr if($f1==55 \, 1 \, 0);
#X connect 0 0 17 0;
#X connect 18 0 19 0;
#X connect 19 0 21 0;
#X connect 21 0 24 0;
#X connect 21 1 29 0;
#X connect 21 2 37 0;
#X connect 21 3 44 0;
#X connect 21 4 51 0;
#X connect 21 5 59 0;
#X connect 21 6 66 0;
#X connect 22 0 23 0;
#X connect 23 0 20 0;
#X connect 24 0 0 0;
#X connect 25 0 22 0;
#X connect 28 0 27 0;
#X connect 29 0 33 0;
#X connect 30 0 31 0;
#X connect 31 0 28 0;
#X connect 33 0 26 0;
#X connect 36 0 35 0;
#X connect 37 0 39 0;
#X connect 38 0 55 0;
#X connect 39 0 34 0;
#X connect 43 0 42 0;
#X connect 44 0 47 0;
#X connect 45 0 46 0;
#X connect 46 0 43 0;
#X connect 47 0 41 0;
#X connect 50 0 49 0;
#X connect 51 0 53 0;
#X connect 52 0 54 0;
#X connect 53 0 48 0;
#X connect 54 0 50 0;
#X connect 55 0 36 0;
#X connect 58 0 57 0;
#X connect 59 0 61 0;
#X connect 60 0 62 0;
#X connect 61 0 56 0;
#X connect 62 0 58 0;
#X connect 65 0 64 0;
#X connect 66 0 68 0;
#X connect 67 0 70 0;
#X connect 68 0 63 0;
#X connect 70 0 65 0;
#X restore 282 330 pd notas ...............................................
;
#X obj 177 214 tgl 20 0 empty empty empty 17 7 0 10 -261682 -1 -1 0
1;
#X obj 560 181 line~;
#X obj 496 189 *~;
#X obj 600 126 route 1;
#X msg 606 150 1 200;
#X obj 179 147 vsl 15 60 0 1 0 0 empty empty empty 0 -9 0 10 -261682
-1 -1 0 1;
#X msg 379 123 \$1 200;
#X obj 376 154 line~;
#X obj 312 162 *~;
#X obj 213 125 vradio 15 1 0 8 empty empty empty 0 -8 0 10 -262144
-1 -1 4;
#X obj 237 125 vradio 15 1 0 8 empty empty empty 0 -8 0 10 -262144
-1 -1 4;
#X msg 150 58 4;
#X obj 154 35 loadbang;
#X obj 176 103 hradio 15 1 0 8 empty empty empty 0 -8 0 10 -262144
-1 -1 4;
#X msg 647 151 0 200;
#X obj 28 675 throw~ sint2;
#X obj 175 677 throw~ sint2;
#X obj 315 678 throw~ sint2;
#X obj 452 679 throw~ sint2;
#X obj 599 679 throw~ sint2;
#X obj 739 680 throw~ sint2;
#X obj 875 681 throw~ sint2;
#X obj 301 81 catch~ sint2;
#X obj 300 285 throw~ SINTE2;
#X obj 390 286 throw~ SINTE2-PROC;
#X obj 49 256 s Octava2;
#X obj 124 256 s Impulse2;
#X obj 186 256 s Release2;
#X obj 384 386 r Octava2;
#X obj 110 364 r Impulse2;
#X obj 172 364 r Release2;
#X obj 528 392 r Impulse2;
#X obj 590 392 r Release2;
#X obj 83 432 SINTE2;
#X obj 252 432 SINTE2;
#X obj 400 432 SINTE2;
#X obj 569 432 SINTE2;
#X obj 708 433 SINTE2;
#X obj 877 433 SINTE2;
#X obj 1025 433 SINTE2;
#X obj 48 52 inlet;
#X obj 85 52 inlet;
#X connect 0 0 34 2;
#X connect 0 1 34 3;
#X connect 0 2 35 2;
#X connect 0 3 35 3;
#X connect 0 4 36 2;
#X connect 0 5 36 3;
#X connect 0 6 37 2;
#X connect 0 7 37 3;
#X connect 0 8 38 2;
#X connect 0 9 38 3;
#X connect 0 10 39 2;
#X connect 0 11 39 3;
#X connect 0 12 40 2;
#X connect 0 13 40 3;
#X connect 1 0 4 0;
#X connect 2 0 3 1;
#X connect 3 0 24 0;
#X connect 4 0 5 0;
#X connect 4 1 15 0;
#X connect 5 0 2 0;
#X connect 6 0 7 0;
#X connect 7 0 8 0;
#X connect 8 0 9 1;
#X connect 9 0 3 0;
#X connect 9 0 25 0;
#X connect 10 0 27 0;
#X connect 11 0 28 0;
#X connect 12 0 10 0;
#X connect 12 0 11 0;
#X connect 12 0 14 0;
#X connect 13 0 12 0;
#X connect 14 0 26 0;
#X connect 15 0 2 0;
#X connect 23 0 9 0;
#X connect 29 0 34 4;
#X connect 29 0 35 4;
#X connect 29 0 36 4;
#X connect 29 0 37 4;
#X connect 29 0 38 4;
#X connect 29 0 39 4;
#X connect 29 0 40 4;
#X connect 30 0 34 0;
#X connect 30 0 35 0;
#X connect 30 0 36 0;
#X connect 31 0 34 1;
#X connect 31 0 35 1;
#X connect 31 0 36 1;
#X connect 32 0 37 0;
#X connect 32 0 38 0;
#X connect 32 0 39 0;
#X connect 32 0 40 0;
#X connect 33 0 37 1;
#X connect 33 0 38 1;
#X connect 33 0 39 1;
#X connect 33 0 40 1;
#X connect 34 0 16 0;
#X connect 35 0 17 0;
#X connect 36 0 18 0;
#X connect 37 0 19 0;
#X connect 38 0 20 0;
#X connect 39 0 21 0;
#X connect 40 0 22 0;
#X connect 41 0 6 0;
#X connect 42 0 1 0;
#X coords 0 -1 1 1 200 150 1 100 100;
