#N canvas 0 62 1265 712 10;
#X obj 844 398 line~;
#X obj 1081 411 line~;
#X obj 768 689 *~;
#X obj 978 405 line~;
#X text 336 3 En este ejemplo se utiliza una FM para modular otra FM
;
#X obj 768 729 outlet~;
#X floatatom 164 138 5 0 0 2 Frec - -, f 5;
#X obj 642 187 t b a;
#X obj 568 131 bng 15 250 50 0 empty empty empty 17 7 0 10 -262144
-1 -1;
#X msg 624 104 440;
#X obj 574 57 inlet;
#X obj 668 72 loadbang;
#X msg 146 674 set duration \$1;
#X obj 571 85 t b a;
#X obj 118 158 vradio 15 1 0 8 empty empty empty 0 -8 0 10 -262144
-1 -1 0;
#X msg -26 571 100;
#X msg 6 571 500;
#X msg 38 570 1000;
#X msg 75 570 2000;
#X msg 111 570 5000;
#X msg 146 570 10000;
#X msg 189 570 30000;
#X msg 232 569 50000;
#X obj 29 526 route 0 1 2 3 4 5 6 7;
#X obj 103 106 hradio 15 1 0 8 empty empty empty 0 -8 0 10 -262144
-1 -1 0;
#X obj 82 622 s \$0-presetTime;
#X obj 300 191 route 0 1 2 3 4 5 6 7;
#X obj 352 286 s \$0-presetTranslate;
#X obj 373 55 r \$0-presetTranslate;
#X obj 361 102 *;
#X floatatom 116 140 5 0 0 2 Trans - -, f 5;
#X msg 78 58 3;
#X obj 38 34 loadbang;
#X obj 391 79 t b a;
#X floatatom 353 82 5 0 0 0 - - -, f 5;
#X obj 891 80 inlet;
#X msg 776 340 1 100;
#X obj 647 266 * 1.4;
#X obj 82 622 s \$0-presetTime;
#X obj 741 191 vsl 15 128 0 10 0 0 empty empty empty 0 -9 0 10 -262144
-1 -1 254 1;
#X obj 1012 170 r \$0-presetTime;
#X obj 963 246 pack \$1 \$2;
#X floatatom 1014 199 5 0 0 0 - - -, f 5;
#X msg 956 177 1;
#X msg 970 279 set \$1 \$2;
#X obj 972 154 t b b;
#X obj 956 311 t b a;
#X msg 867 354 0 2000;
#X obj 1136 246 pack \$1 \$2;
#X floatatom 1187 199 5 0 0 0 - - -, f 5;
#X obj 1130 129 bng 15 250 50 0 empty empty empty 17 7 0 10 -262144
-1 -1;
#X msg 1143 279 set \$1 \$2;
#X obj 1145 154 t b b;
#X obj 1129 311 t b a;
#X msg 1129 177 0;
#X msg 278 641 100;
#X msg 310 641 500;
#X msg 342 640 1000;
#X msg 379 640 2000;
#X msg 415 640 5000;
#X msg 450 640 10000;
#X msg 493 640 30000;
#X obj 333 596 route 0 1 2 3 4 5 6 7;
#X obj 174 158 vradio 15 1 0 8 empty empty empty 0 -8 0 10 -262144
-1 -1 3;
#X obj 382 722 s \$0-presetTimeRelease;
#X obj 1185 170 r \$0-presetTimeRelease;
#X obj 795 214 route 1;
#X msg 534 640 50000;
#X floatatom 113 283 5 0 0 0 - - -, f 5;
#X floatatom 175 281 5 0 0 0 - - -, f 5;
#X obj 210 141 bng 15 250 50 0 empty empty empty 17 7 0 10 -262144
-1 -1;
#X msg 48 78 4;
#X obj 151 48 inlet;
#X obj 192 50 inlet;
#X obj 1020 48 inlet;
#X msg 716 144 0.2;
#X obj 659 440 osc~;
#X obj 659 475 *~;
#X obj 659 541 +~;
#X obj 659 569 osc~;
#X floatatom 659 407 5 0 0 1 Frec._Moduladora - -, f 5;
#X msg 245 236 0.5;
#X msg 277 236 1;
#X msg 309 235 2;
#X msg 346 235 3;
#X msg 382 235 4;
#X msg 417 235 5;
#X msg 460 235 6;
#X msg 503 234 10;
#X obj 957 129 bng 15 250 50 0 empty empty empty 17 7 0 10 -262144
-1 -1;
#X obj 802 122 keyname;
#X obj 798 165 spigot;
#X obj 979 435 *~ 50;
#X obj 844 428 *~ 500;
#X connect 0 0 93 0;
#X connect 1 0 2 1;
#X connect 2 0 5 0;
#X connect 3 0 92 0;
#X connect 6 0 7 0;
#X connect 7 1 37 0;
#X connect 8 0 6 0;
#X connect 8 0 70 0;
#X connect 9 0 6 0;
#X connect 10 0 13 0;
#X connect 11 0 9 0;
#X connect 11 0 75 0;
#X connect 13 0 8 0;
#X connect 13 1 34 0;
#X connect 14 0 23 0;
#X connect 14 0 68 0;
#X connect 15 0 25 0;
#X connect 16 0 25 0;
#X connect 17 0 25 0;
#X connect 18 0 25 0;
#X connect 19 0 25 0;
#X connect 20 0 25 0;
#X connect 21 0 25 0;
#X connect 22 0 25 0;
#X connect 23 0 15 0;
#X connect 23 1 16 0;
#X connect 23 2 17 0;
#X connect 23 3 18 0;
#X connect 23 4 19 0;
#X connect 23 5 20 0;
#X connect 23 6 21 0;
#X connect 23 7 22 0;
#X connect 24 0 26 0;
#X connect 26 0 81 0;
#X connect 26 1 82 0;
#X connect 26 2 83 0;
#X connect 26 3 84 0;
#X connect 26 4 85 0;
#X connect 26 5 86 0;
#X connect 26 6 87 0;
#X connect 26 7 88 0;
#X connect 28 0 30 0;
#X connect 28 0 33 0;
#X connect 29 0 6 0;
#X connect 29 0 80 0;
#X connect 31 0 24 0;
#X connect 32 0 31 0;
#X connect 32 0 71 0;
#X connect 33 0 34 0;
#X connect 33 1 29 1;
#X connect 34 0 29 0;
#X connect 35 0 91 1;
#X connect 36 0 0 0;
#X connect 36 0 3 0;
#X connect 36 0 1 0;
#X connect 39 0 37 1;
#X connect 40 0 42 0;
#X connect 41 0 44 0;
#X connect 42 0 41 1;
#X connect 43 0 41 0;
#X connect 44 0 46 0;
#X connect 45 0 43 0;
#X connect 45 1 42 0;
#X connect 46 0 36 0;
#X connect 46 1 36 0;
#X connect 47 0 0 0;
#X connect 47 0 3 0;
#X connect 47 0 1 0;
#X connect 48 0 51 0;
#X connect 49 0 48 1;
#X connect 50 0 52 0;
#X connect 51 0 53 0;
#X connect 52 0 54 0;
#X connect 52 1 49 0;
#X connect 53 0 47 0;
#X connect 53 1 47 0;
#X connect 54 0 48 0;
#X connect 55 0 64 0;
#X connect 56 0 64 0;
#X connect 57 0 64 0;
#X connect 58 0 64 0;
#X connect 59 0 64 0;
#X connect 60 0 64 0;
#X connect 61 0 64 0;
#X connect 62 0 55 0;
#X connect 62 1 56 0;
#X connect 62 2 57 0;
#X connect 62 3 58 0;
#X connect 62 4 59 0;
#X connect 62 5 60 0;
#X connect 62 6 61 0;
#X connect 62 7 67 0;
#X connect 63 0 62 0;
#X connect 63 0 69 0;
#X connect 65 0 49 0;
#X connect 66 0 89 0;
#X connect 66 1 50 0;
#X connect 67 0 64 0;
#X connect 71 0 14 0;
#X connect 71 0 63 0;
#X connect 72 0 14 0;
#X connect 73 0 63 0;
#X connect 74 0 24 0;
#X connect 75 0 39 0;
#X connect 76 0 77 0;
#X connect 77 0 78 0;
#X connect 78 0 79 0;
#X connect 79 0 2 0;
#X connect 80 0 76 0;
#X connect 81 0 27 0;
#X connect 82 0 27 0;
#X connect 83 0 27 0;
#X connect 84 0 27 0;
#X connect 85 0 27 0;
#X connect 86 0 27 0;
#X connect 87 0 27 0;
#X connect 88 0 27 0;
#X connect 89 0 45 0;
#X connect 90 0 91 0;
#X connect 91 0 66 0;
#X connect 92 0 78 1;
#X connect 93 0 77 1;
#X coords 0 -1 1 1 130 200 2 100 100;
