#N canvas 203 199 445 379 10;
#X floatatom 26 93 5 0 0 0 - - -, f 5;
#X floatatom 103 139 5 0 0 0 - - -, f 5;
#X obj 33 47 notein;
#X obj 43 229 spigot;
#X floatatom 44 277 5 0 0 0 - - -, f 5;
#X msg 97 183 1;
#X msg 127 182 0;
#X obj 26 139 route \$1;
#X obj 53 323 outlet;
#X obj 127 207 t a a;
#X obj 36 186 bng 15 250 50 0 empty empty empty 17 7 0 10 -262144 -1
-1;
#X connect 0 0 7 0;
#X connect 1 0 3 0;
#X connect 2 0 0 0;
#X connect 2 1 1 0;
#X connect 3 0 4 0;
#X connect 4 0 8 0;
#X connect 5 0 3 1;
#X connect 6 0 9 0;
#X connect 7 0 5 0;
#X connect 7 0 10 0;
#X connect 7 1 6 0;
#X connect 9 0 3 1;
#X connect 9 1 4 0;
#X connect 10 0 5 0;
